<?xml version="1.0" encoding="utf-8"?>
<!-- Generator: Adobe Illustrator 16.0.0, SVG Export Plug-In . SVG Version: 6.00 Build 0)  -->
<!DOCTYPE svg PUBLIC "-//W3C//DTD SVG 1.1//EN" "http://www.w3.org/Graphics/SVG/1.1/DTD/svg11.dtd">
<svg version="1.1" id="Layer_1" xmlns="http://www.w3.org/2000/svg" xmlns:xlink="http://www.w3.org/1999/xlink" x="0px" y="0px"
	 width="512px" height="512px" viewBox="0 0 512 512" enable-background="new 0 0 512 512" xml:space="preserve">
<g>
	<path d="M489.133,79.039c-3.965-6.699-10.301-11.453-17.84-13.387s-15.383-0.82-22.082,3.145s-11.453,10.297-13.387,17.835
		l-1.039,4.055c-22.262-27.441-50.39-49.886-82.347-65.562C293.76-3.652,227.389-7.859,165.558,13.285
		C103.719,34.421,53.816,78.378,25.039,137.054c-7.074,14.425-1.094,31.921,13.332,38.996c6.988,3.43,14.895,3.926,22.258,1.41
		c7.367-2.52,13.313-7.754,16.738-14.742c21.922-44.699,59.94-78.183,107.046-94.284c4.215-1.441,8.531-2.754,12.828-3.891
		c3.191-0.844,6.453-1.617,9.699-2.297c5.445-1.141,8.941-6.48,7.801-11.93c-1.141-5.445-6.48-8.941-11.93-7.801
		c-3.59,0.75-7.203,1.605-10.734,2.543c-4.754,1.258-9.527,2.707-14.184,4.301C125.69,67.203,83.563,104.308,59.27,153.842
		c-1.055,2.152-2.887,3.766-5.16,4.543c-2.27,0.777-4.707,0.625-6.863-0.434c-4.445-2.18-6.289-7.574-4.109-12.023
		c26.406-53.839,72.198-94.175,128.944-113.573c56.737-19.398,117.64-15.539,171.482,10.867
		c35.305,17.316,65.515,43.632,87.358,76.101c2.215,3.297,6.164,4.98,10.07,4.309c3.914-0.676,7.066-3.582,8.055-7.43l6.305-24.559
		c0.594-2.324,2.063-4.277,4.125-5.5c2.066-1.223,4.484-1.57,6.809-0.969c2.324,0.598,4.277,2.063,5.5,4.129
		c1.223,2.063,1.566,4.48,0.969,6.805l-18.555,72.308c-0.012,0.039-0.023,0.078-0.035,0.113c-0.016,0.066-0.035,0.133-0.055,0.199
		c-0.031,0.098-0.063,0.191-0.09,0.285l-0.375,1.02c-0.055,0.125-0.121,0.246-0.195,0.398l-0.117,0.238
		c-0.074,0.137-0.16,0.27-0.207,0.344l-0.168,0.281c-0.074,0.113-0.156,0.223-0.234,0.328l-0.172,0.238
		c-0.082,0.105-0.172,0.207-0.285,0.344l-0.156,0.188c-0.098,0.102-0.195,0.199-0.293,0.297l-0.195,0.199
		c-0.086,0.078-0.18,0.156-0.27,0.238l-0.246,0.211c-0.078,0.063-0.164,0.125-0.285,0.215l-0.734,0.496l-2.059,0.922
		c-0.16,0.047-0.324,0.086-0.496,0.125c-0.082,0.023-0.164,0.043-0.246,0.066c-0.426,0.09-0.852,0.148-1.258,0.176
		c-0.516,0.027-1.09,0.008-1.789-0.082c-0.109-0.016-0.223-0.027-0.309-0.039c-0.086-0.02-0.18-0.039-0.297-0.063
		c-0.188-0.039-0.371-0.078-0.551-0.125c-0.059-0.016-0.121-0.031-0.18-0.047l-71.71-19.824c-2.316-0.641-4.242-2.145-5.426-4.23
		s-1.48-4.512-0.84-6.824c0.637-2.312,2.141-4.238,4.227-5.421c2.09-1.184,4.512-1.484,6.824-0.844l29.921,8.273
		c4.043,1.117,8.367-0.391,10.841-3.789c2.469-3.398,2.57-7.977,0.258-11.48c-20.191-30.57-48.316-55.289-81.347-71.488
		c-16.242-7.965-33.367-13.777-50.898-17.27c-5.461-1.082-10.766,2.457-11.855,7.918c-1.086,5.457,2.457,10.766,7.918,11.852
		c15.82,3.152,31.281,8.398,45.961,15.598c20.835,10.218,39.507,24.195,55.081,41.097l-0.508-0.141
		c-7.504-2.074-15.367-1.102-22.137,2.734c-6.773,3.84-11.645,10.086-13.719,17.59c-2.074,7.5-1.102,15.363,2.738,22.132
		c3.836,6.773,10.082,11.645,17.586,13.719l71.874,19.871c0.09,0.023,0.195,0.051,0.301,0.074c0.508,0.137,1.023,0.25,1.488,0.348
		c0.219,0.051,0.441,0.102,0.715,0.152c0.5,0.09,1,0.156,1.512,0.223c1.301,0.168,2.59,0.254,3.859,0.254
		c0.586,0,1.168-0.02,1.742-0.055c1.527-0.098,3.074-0.324,4.613-0.672c0.168-0.039,0.332-0.082,0.5-0.129
		c0.551-0.133,1.098-0.281,1.602-0.438c0.281-0.086,0.559-0.184,0.895-0.301l0.129-0.047c0.371-0.125,0.738-0.253,1.109-0.402
		c0.316-0.125,0.629-0.262,0.938-0.398l0.215-0.094c0.293-0.129,0.582-0.258,0.891-0.406s0.609-0.309,0.91-0.473l0.215-0.117
		c0.277-0.145,0.551-0.293,0.859-0.473c0.273-0.16,0.535-0.324,0.797-0.496l0.227-0.141c0.281-0.18,0.566-0.363,0.852-0.563
		c0.242-0.168,0.48-0.344,0.719-0.523l0.121-0.09c0.324-0.242,0.648-0.484,0.996-0.77c0.188-0.156,0.371-0.313,0.555-0.473
		l0.145-0.125c0.328-0.289,0.652-0.574,1-0.906c0.164-0.156,0.32-0.313,0.535-0.535c0.348-0.348,0.688-0.699,1.027-1.074
		c0.148-0.168,0.293-0.34,0.441-0.516c0.34-0.398,0.676-0.805,0.996-1.223c0.133-0.172,0.262-0.352,0.414-0.566
		c0.305-0.422,0.605-0.848,0.883-1.273c0.125-0.191,0.246-0.391,0.363-0.586l0.066-0.109c0.254-0.418,0.504-0.84,0.723-1.242
		c0.137-0.246,0.266-0.5,0.391-0.754l0.031-0.066c0.203-0.406,0.406-0.813,0.578-1.203c0.137-0.297,0.258-0.598,0.375-0.898
		l0.09-0.223c0.141-0.34,0.273-0.684,0.406-1.059c0.117-0.328,0.223-0.66,0.324-0.992l0.031-0.109
		c0.098-0.277,0.188-0.559,0.266-0.848c0.012-0.039,0.02-0.074,0.031-0.109c0.012-0.047,0.023-0.098,0.035-0.148
		c0.027-0.098,0.055-0.191,0.074-0.273l18.602-72.488C494.215,93.581,493.098,85.737,489.133,79.039z"/>
	<path d="M473.621,335.958c-14.426-7.074-31.918-1.094-38.996,13.332c-21.922,44.698-59.937,78.183-107.045,94.288
		c-47.102,16.102-97.664,12.898-142.358-9.023c-20.836-10.219-39.508-24.191-55.082-41.098l0.508,0.141
		c3.148,0.871,6.391,1.207,9.625,1c12.379-0.789,22.922-9.358,26.23-21.319c4.277-15.488-4.836-31.574-20.324-35.855l-71.87-19.867
		c-0.102-0.027-0.207-0.055-0.313-0.078c-0.809-0.219-1.637-0.398-2.453-0.539c-0.238-0.043-0.477-0.078-0.715-0.105
		c-0.617-0.094-1.234-0.168-1.863-0.219c-0.379-0.035-0.758-0.055-1.137-0.07c-0.418-0.02-0.84-0.027-1.242-0.027
		c-0.43,0-0.84,0.004-1.258,0.02c-0.16,0.004-0.32,0.008-0.48,0.016c-0.035,0.004-0.07,0.008-0.105,0.008
		c-0.023,0.004-0.043,0.004-0.066,0.004c-0.309,0.02-0.613,0.051-0.965,0.094l-0.152,0.016c-0.355,0.031-0.711,0.066-1.078,0.121
		c-0.73,0.102-1.477,0.238-2.195,0.398c-0.281,0.059-0.559,0.129-0.832,0.199l-0.086,0.023c-0.609,0.156-1.215,0.324-1.785,0.508
		c-0.277,0.09-0.551,0.188-0.824,0.289l-0.063,0.023c-0.547,0.195-1.086,0.402-1.551,0.602c-0.309,0.133-0.609,0.27-0.91,0.406
		c-0.523,0.246-1.043,0.508-1.563,0.789l-0.094,0.051c-0.203,0.109-0.402,0.219-0.648,0.359c-0.563,0.324-1.129,0.68-1.699,1.066
		c-0.148,0.094-0.297,0.191-0.473,0.316c-0.652,0.461-1.316,0.973-1.945,1.504c-0.23,0.188-0.449,0.387-0.668,0.59l-0.082,0.07
		c-0.391,0.352-0.773,0.711-1.133,1.07c-0.262,0.262-0.516,0.531-0.781,0.816c-0.332,0.359-0.652,0.73-0.973,1.109l-0.07,0.086
		c-0.223,0.266-0.438,0.527-0.629,0.773c-0.363,0.473-0.711,0.961-1.055,1.473l-0.07,0.102c-0.164,0.242-0.328,0.484-0.48,0.73
		c-0.402,0.641-0.785,1.309-1.148,2c-0.129,0.246-0.25,0.496-0.367,0.746l-0.035,0.07c-0.266,0.543-0.512,1.094-0.727,1.617
		c-0.125,0.313-0.246,0.621-0.355,0.914c-0.203,0.547-0.391,1.105-0.555,1.652c-0.086,0.25-0.168,0.504-0.238,0.766
		c-0.02,0.074-0.039,0.148-0.059,0.223c-0.02,0.082-0.047,0.168-0.07,0.266l-18.605,72.491
		c-3.992,15.563,5.422,31.473,20.984,35.465c7.543,1.941,15.383,0.82,22.082-3.141c6.699-3.965,11.457-10.301,13.391-17.84
		l1.039-4.051c22.258,27.441,50.386,49.883,82.347,65.563c33.711,16.531,70.651,25.108,107.71,25.108
		c5.082,0,10.176-0.16,15.254-0.484c21.641-1.383,43.145-5.683,63.913-12.784c61.839-21.141,111.741-65.094,140.522-123.769
		C494.031,360.528,488.051,343.036,473.621,335.958z M468.855,366.079c-26.406,53.843-72.198,94.175-128.94,113.573
		c-19.081,6.523-38.823,10.473-58.683,11.742c-38.609,2.465-77.616-5.352-112.804-22.609
		c-35.305-17.316-65.515-43.633-87.358-76.102c-1.891-2.812-5.043-4.452-8.359-4.452c-0.57,0-1.141,0.047-1.715,0.145
		c-3.91,0.676-7.063,3.585-8.051,7.429l-6.301,24.559c-0.598,2.324-2.063,4.277-4.129,5.5s-4.48,1.57-6.809,0.969
		c-4.801-1.23-7.699-6.137-6.469-10.938l18.547-72.269c0.023-0.09,0.051-0.176,0.074-0.262c0.027-0.09,0.059-0.18,0.086-0.277
		c0.059-0.195,0.117-0.387,0.199-0.598l0.102-0.262c0.066-0.164,0.137-0.32,0.227-0.5l0.148-0.313
		c0.098-0.188,0.203-0.367,0.289-0.508l0.203-0.297c0.098-0.148,0.195-0.293,0.305-0.434l0.23-0.277
		c0.098-0.117,0.195-0.23,0.281-0.324c0.082-0.09,0.164-0.18,0.266-0.281c0.113-0.109,0.23-0.215,0.352-0.324l0.258-0.234
		c0.16-0.133,0.313-0.254,0.441-0.348c0.074-0.051,0.148-0.102,0.219-0.148c0.172-0.117,0.352-0.23,0.531-0.34l0.273-0.145
		c0.164-0.09,0.332-0.176,0.5-0.254l0.262-0.117c0.152-0.063,0.309-0.125,0.5-0.191l0.238-0.09c0.188-0.059,0.375-0.105,0.578-0.16
		l0.266-0.07c0.223-0.051,0.445-0.09,0.605-0.113l0.75-0.074c0.031,0,0.113-0.004,0.145-0.008c0.09-0.004,0.176-0.004,0.273-0.004
		H66.5c0.148,0,0.297,0,0.441,0.008c0.113,0.004,0.227,0.008,0.336,0.02c0.195,0.016,0.391,0.039,0.578,0.07l0.324,0.043
		c0.238,0.043,0.477,0.098,0.711,0.164c0.043,0.012,0.082,0.02,0.121,0.031c0.039,0.008,0.074,0.02,0.113,0.027l71.679,19.816
		c4.773,1.32,7.586,6.277,6.266,11.055c-1.02,3.688-4.27,6.332-8.086,6.574c-0.992,0.063-1.992-0.039-2.969-0.313l-29.921-8.27
		c-4.051-1.121-8.367,0.391-10.84,3.789c-2.469,3.398-2.57,7.973-0.254,11.48c20.187,30.565,48.312,55.284,81.343,71.487
		c49.527,24.289,105.554,27.844,157.757,9.996c52.202-17.848,94.326-54.953,118.619-104.483c2.184-4.449,7.578-6.289,12.023-4.109
		C469.195,356.239,471.035,361.634,468.855,366.079z"/>
	<path d="M242.955,59.191c3.523,0,6.941-1.848,8.793-5.137l0.164-0.293c2.73-4.852,1.008-10.996-3.84-13.727
		c-4.852-2.73-11-1.008-13.727,3.844l-0.164,0.289c-2.73,4.852-1.012,10.996,3.84,13.727
		C239.584,58.773,241.279,59.191,242.955,59.191z"/>
</g>
<g>
	<path d="M263.686,255.168c28.313,0,51.277-22.965,51.277-51.277s-22.965-51.121-51.277-51.121s-51.277,22.966-51.277,51.121
		S235.373,255.168,263.686,255.168z M263.686,166.14c20.762,0,37.75,16.988,37.75,37.75s-16.988,37.75-37.75,37.75
		c-20.763,0-37.75-16.987-37.75-37.75S242.922,166.14,263.686,166.14z"/>
	<path d="M174.972,335.23h178.057c3.773,0,6.762-2.988,6.762-6.764c0-35.391-28.783-64.333-64.332-64.333h-62.917
		c-35.391,0-64.333,28.784-64.333,64.333C168.208,332.242,171.197,335.23,174.972,335.23z M232.542,277.66h62.917
		c25.795,0,47.031,19.19,50.334,44.043H182.208C185.511,297.008,206.746,277.66,232.542,277.66z"/>
</g>
</svg>
