<?xml version="1.0" standalone="no"?><!DOCTYPE svg PUBLIC "-//W3C//DTD SVG 1.1//EN" "http://www.w3.org/Graphics/SVG/1.1/DTD/svg11.dtd"><svg xmlns:xlink="http://www.w3.org/1999/xlink" version="1.1" style="font-family:dosis, sans-serif;font-size:12px;" xmlns="http://www.w3.org/2000/svg" width="600" height="400"><desc>Created with Highcharts 4.2.7</desc><defs><clipPath id="highcharts-81"><rect x="0" y="0" width="553" height="313"></rect></clipPath></defs><rect x="1" y="1" width="598" height="398" fill="none" class=" highcharts-background"></rect><rect x="37" y="10" width="553" height="313" fill="none"  stroke="black" stroke-opacity="0.049999999999999996" stroke-width="5" transform="translate(1, 1)"></rect><rect x="37" y="10" width="553" height="313" fill="none"  stroke="black" stroke-opacity="0.09999999999999999" stroke-width="3" transform="translate(1, 1)"></rect><rect x="37" y="10" width="553" height="313" fill="none"  stroke="black" stroke-opacity="0.15" stroke-width="1" transform="translate(1, 1)"></rect><rect x="37" y="10" width="553" height="313" fill="rgb(255, 255, 255)" fill-opacity=" .9"></rect><path fill="rgb(255, 255, 255)" fill-opacity=" .5" d="M 37 323.5 L 590 323.5 590 245.5 37 245.5"></path><path fill="rgb(255, 255, 255)" fill-opacity=" .5" d="M 37 167.5 L 590 167.5 590 88.5 37 88.5"></path><g class="highcharts-grid"><path fill="none" d="M 115.5 10 L 115.5 323" stroke="#C0C0C0" stroke-width="1" opacity="1"></path><path fill="none" d="M 194.5 10 L 194.5 323" stroke="#C0C0C0" stroke-width="1" opacity="1"></path><path fill="none" d="M 273.5 10 L 273.5 323" stroke="#C0C0C0" stroke-width="1" opacity="1"></path><path fill="none" d="M 352.5 10 L 352.5 323" stroke="#C0C0C0" stroke-width="1" opacity="1"></path><path fill="none" d="M 431.5 10 L 431.5 323" stroke="#C0C0C0" stroke-width="1" opacity="1"></path><path fill="none" d="M 510.5 10 L 510.5 323" stroke="#C0C0C0" stroke-width="1" opacity="1"></path><path fill="none" d="M 590.5 10 L 590.5 323" stroke="#C0C0C0" stroke-width="1" opacity="1"></path><path fill="none" d="M 36.5 10 L 36.5 323" stroke="#C0C0C0" stroke-width="1" opacity="1"></path></g><g class="highcharts-grid"><path fill="none" d="M 37 323.5 L 590 323.5" stroke="#E0E0E0" stroke-width="1" opacity="1"></path><path fill="none" d="M 37 307.5 L 590 307.5" stroke="#E0E0E0" stroke-width="1" opacity="1"></path><path fill="none" d="M 37 292.5 L 590 292.5" stroke="#E0E0E0" stroke-width="1" opacity="1"></path><path fill="none" d="M 37 276.5 L 590 276.5" stroke="#E0E0E0" stroke-width="1" opacity="1"></path><path fill="none" d="M 37 260.5 L 590 260.5" stroke="#E0E0E0" stroke-width="1" opacity="1"></path><path fill="none" d="M 37 245.5 L 590 245.5" stroke="#E0E0E0" stroke-width="1" opacity="1"></path><path fill="none" d="M 37 229.5 L 590 229.5" stroke="#E0E0E0" stroke-width="1" opacity="1"></path><path fill="none" d="M 37 213.5 L 590 213.5" stroke="#E0E0E0" stroke-width="1" opacity="1"></path><path fill="none" d="M 37 198.5 L 590 198.5" stroke="#E0E0E0" stroke-width="1" opacity="1"></path><path fill="none" d="M 37 182.5 L 590 182.5" stroke="#E0E0E0" stroke-width="1" opacity="1"></path><path fill="none" d="M 37 167.5 L 590 167.5" stroke="#E0E0E0" stroke-width="1" opacity="1"></path><path fill="none" d="M 37 151.5 L 590 151.5" stroke="#E0E0E0" stroke-width="1" opacity="1"></path><path fill="none" d="M 37 135.5 L 590 135.5" stroke="#E0E0E0" stroke-width="1" opacity="1"></path><path fill="none" d="M 37 120.5 L 590 120.5" stroke="#E0E0E0" stroke-width="1" opacity="1"></path><path fill="none" d="M 37 104.5 L 590 104.5" stroke="#E0E0E0" stroke-width="1" opacity="1"></path><path fill="none" d="M 37 88.5 L 590 88.5" stroke="#E0E0E0" stroke-width="1" opacity="1"></path><path fill="none" d="M 37 73.5 L 590 73.5" stroke="#E0E0E0" stroke-width="1" opacity="1"></path><path fill="none" d="M 37 57.5 L 590 57.5" stroke="#E0E0E0" stroke-width="1" opacity="1"></path><path fill="none" d="M 37 41.5 L 590 41.5" stroke="#E0E0E0" stroke-width="1" opacity="1"></path><path fill="none" d="M 37 26.5 L 590 26.5" stroke="#E0E0E0" stroke-width="1" opacity="1"></path><path fill="none" d="M 37 9.5 L 590 9.5" stroke="#E0E0E0" stroke-width="1" opacity="1"></path><path fill="none" d="M 37 323.5 L 590 323.5" stroke="#C0C0C0" stroke-width="1" opacity="1"></path><path fill="none" d="M 37 245.5 L 590 245.5" stroke="#C0C0C0" stroke-width="1" opacity="1"></path><path fill="none" d="M 37 167.5 L 590 167.5" stroke="#C0C0C0" stroke-width="1" opacity="1"></path><path fill="none" d="M 37 88.5 L 590 88.5" stroke="#C0C0C0" stroke-width="1" opacity="1"></path><path fill="none" d="M 37 9.5 L 590 9.5" stroke="#C0C0C0" stroke-width="1" opacity="1"></path></g><g class="highcharts-axis"><path fill="none" d="M 115.5 323 L 115.5 333" stroke="#C0D0E0" stroke-width="1" opacity="1"></path><path fill="none" d="M 194.5 323 L 194.5 333" stroke="#C0D0E0" stroke-width="1" opacity="1"></path><path fill="none" d="M 273.5 323 L 273.5 333" stroke="#C0D0E0" stroke-width="1" opacity="1"></path><path fill="none" d="M 352.5 323 L 352.5 333" stroke="#C0D0E0" stroke-width="1" opacity="1"></path><path fill="none" d="M 431.5 323 L 431.5 333" stroke="#C0D0E0" stroke-width="1" opacity="1"></path><path fill="none" d="M 510.5 323 L 510.5 333" stroke="#C0D0E0" stroke-width="1" opacity="1"></path><path fill="none" d="M 590.5 323 L 590.5 333" stroke="#C0D0E0" stroke-width="1" opacity="1"></path><path fill="none" d="M 36.5 323 L 36.5 333" stroke="#C0D0E0" stroke-width="1" opacity="1"></path><path fill="none" d="M 37 323.5 L 590 323.5" stroke="#C0D0E0" stroke-width="1"></path></g><g class="highcharts-axis"><path fill="none" d="M 36.5 10 L 36.5 323"></path></g><g class="highcharts-series-group"><g class="highcharts-series highcharts-series-0" transform="translate(37,10) scale(1 1)" clip-path="url(#highcharts-81)"><rect x="20.5" y="16.5" width="38" height="297" stroke="#FFFFFF" stroke-width="1" fill="#50B432" rx="0" ry="0"></rect><rect x="99.5" y="157.5" width="38" height="156" stroke="#FFFFFF" stroke-width="1" fill="#ED561B" rx="0" ry="0"></rect><rect x="178.5" y="192.5" width="38" height="121" stroke="#FFFFFF" stroke-width="1" fill="#DDDF00" rx="0" ry="0"></rect><rect x="257.5" y="246.5" width="38" height="67" stroke="#FFFFFF" stroke-width="1" fill="#24CBE5" rx="0" ry="0"></rect><rect x="336.5" y="286.5" width="38" height="27" stroke="#FFFFFF" stroke-width="1" fill="#64E572" rx="0" ry="0"></rect><rect x="415.5" y="297.5" width="38" height="16" stroke="#FFFFFF" stroke-width="1" fill="#FF9655" rx="0" ry="0"></rect><rect x="494.5" y="305.5" width="38" height="8" stroke="#FFFFFF" stroke-width="1" fill="#FFF263" rx="0" ry="0"></rect></g><g class="highcharts-markers highcharts-series-0" transform="translate(37,10) scale(1 1)" clip-path="none"></g><g class="highcharts-series highcharts-series-1" transform="translate(37,10) scale(1 1)" clip-path="url(#highcharts-81)"></g><g class="highcharts-markers highcharts-series-1" transform="translate(37,10) scale(1 1)" clip-path="none"></g></g><g class="highcharts-data-labels highcharts-series-0" transform="translate(37,10) scale(1 1)" opacity="1"><g style="cursor:pointer;" transform="translate(28,17)"><text x="5" style="font-size:12px;font-weight:bold;font-family:'arial', sans-serif;color:#333;text-shadow:none;fill:#333;text-rendering:geometricprecision;" y="17"><tspan>76</tspan></text></g><g style="cursor:pointer;" transform="translate(107,133)"><text x="5" style="font-size:12px;font-weight:bold;font-family:'arial', sans-serif;color:#333;text-shadow:none;fill:#333;text-rendering:geometricprecision;" y="17"><tspan>40</tspan></text></g><g style="cursor:pointer;" transform="translate(186,168)"><text x="5" style="font-size:12px;font-weight:bold;font-family:'arial', sans-serif;color:#333;text-shadow:none;fill:#333;text-rendering:geometricprecision;" y="17"><tspan>31</tspan></text></g><g style="cursor:pointer;" transform="translate(265,222)"><text x="5" style="font-size:12px;font-weight:bold;font-family:'arial', sans-serif;color:#333;text-shadow:none;fill:#333;text-rendering:geometricprecision;" y="17"><tspan>17</tspan></text></g><g style="cursor:pointer;" transform="translate(347,262)"><text x="5" style="font-size:12px;font-weight:bold;font-family:'arial', sans-serif;color:#333;text-shadow:none;fill:#333;text-rendering:geometricprecision;" y="17"><tspan>7</tspan></text></g><g style="cursor:pointer;" transform="translate(426,273)"><text x="5" style="font-size:12px;font-weight:bold;font-family:'arial', sans-serif;color:#333;text-shadow:none;fill:#333;text-rendering:geometricprecision;" y="17"><tspan>4</tspan></text></g><g style="cursor:pointer;" transform="translate(505,281)"><text x="5" style="font-size:12px;font-weight:bold;font-family:'arial', sans-serif;color:#333;text-shadow:none;fill:#333;text-rendering:geometricprecision;" y="17"><tspan>2</tspan></text></g></g><g class="highcharts-data-labels highcharts-series-1" transform="translate(37,10) scale(1 1)" opacity="1"></g><g class="highcharts-legend" transform="translate(263,358)"><g><g><g class="highcharts-legend-item" transform="translate(8,3)"><text x="21" style="color:#333;font-size:13px;font-weight:bold;cursor:pointer;font-family:dosis, sans-serif;text-transform:none;fill:#333;" text-anchor="start" y="16"><tspan>Series 1</tspan></text><rect x="0" y="4" width="16" height="13" fill="#CCC"></rect></g></g></g></g><g class="highcharts-axis-labels highcharts-xaxis-labels"><text x="76.5" style="color:#606060;cursor:default;font-size:12px;font-family:dosis, sans-serif;text-transform:none;font-weight:normal;fill:#606060;" text-anchor="middle" transform="translate(0,0)" y="343" opacity="1"><tspan>Online Videos</tspan></text><text x="155.5" style="color:#606060;cursor:default;font-size:12px;font-family:dosis, sans-serif;text-transform:none;font-weight:normal;fill:#606060;" text-anchor="middle" transform="translate(0,0)" y="343" opacity="1"><tspan>Exercise Classes</tspan></text><text x="234.5" style="color:#606060;cursor:default;font-size:12px;font-family:dosis, sans-serif;text-transform:none;font-weight:normal;fill:#606060;width:79;text-overflow:ellipsis;" text-anchor="middle" transform="translate(0,0)" y="343" opacity="1"><tspan>Mobile Applica…</tspan><title>Mobile Applications</title></text><text x="313.5" style="color:#606060;cursor:default;font-size:12px;font-family:dosis, sans-serif;text-transform:none;font-weight:normal;fill:#606060;" text-anchor="middle" transform="translate(0,0)" y="343" opacity="1"><tspan>News Articles</tspan></text><text x="392.5" style="color:#606060;cursor:default;font-size:12px;font-family:dosis, sans-serif;text-transform:none;font-weight:normal;fill:#606060;" text-anchor="middle" transform="translate(0,0)" y="343" opacity="1">Books</text><text x="471.5" style="color:#606060;cursor:default;font-size:12px;font-family:dosis, sans-serif;text-transform:none;font-weight:normal;fill:#606060;" text-anchor="middle" transform="translate(0,0)" y="343" opacity="1">Friends</text><text x="550.5" style="color:#606060;cursor:default;font-size:12px;font-family:dosis, sans-serif;text-transform:none;font-weight:normal;fill:#606060;" text-anchor="middle" transform="translate(0,0)" y="343" opacity="1">TV</text></g><g class="highcharts-axis-labels highcharts-yaxis-labels"><text x="22" style="color:#606060;cursor:default;font-size:12px;font-family:dosis, sans-serif;text-transform:none;font-weight:normal;fill:#606060;width:188px;text-overflow:clip;" text-anchor="end" transform="translate(0,0)" y="328" opacity="1"><tspan>0</tspan></text><text x="22" style="color:#606060;cursor:default;font-size:12px;font-family:dosis, sans-serif;text-transform:none;font-weight:normal;fill:#606060;width:188px;text-overflow:clip;" text-anchor="end" transform="translate(0,0)" y="249" opacity="1"><tspan>20</tspan></text><text x="22" style="color:#606060;cursor:default;font-size:12px;font-family:dosis, sans-serif;text-transform:none;font-weight:normal;fill:#606060;width:188px;text-overflow:clip;" text-anchor="end" transform="translate(0,0)" y="171" opacity="1"><tspan>40</tspan></text><text x="22" style="color:#606060;cursor:default;font-size:12px;font-family:dosis, sans-serif;text-transform:none;font-weight:normal;fill:#606060;width:188px;text-overflow:clip;" text-anchor="end" transform="translate(0,0)" y="93" opacity="1"><tspan>60</tspan></text><text x="22" style="color:#606060;cursor:default;font-size:12px;font-family:dosis, sans-serif;text-transform:none;font-weight:normal;fill:#606060;width:188px;text-overflow:clip;" text-anchor="end" transform="translate(0,0)" y="15" opacity="1"><tspan>80</tspan></text></g><g class="highcharts-tooltip" display="none" style="cursor:default;padding:0;pointer-events:none;white-space:nowrap;" transform="translate(0,0)"><path fill="rgb(219,219,216)" fill-opacity="0.8" d="M 3 0 L 13 0 C 16 0 16 0 16 3 L 16 13 C 16 16 16 16 13 16 L 3 16 C 0 16 0 16 0 13 L 0 3 C 0 0 0 0 3 0"></path><text x="8" style="font-size:12px;color:#333;fill:#333;" y="20"></text></g><text x="590" text-anchor="end" style="cursor:pointer;color:#666;font-size:9px;fill:#666;" y="395">meta-chart.com</text></svg>