<?xml version="1.0" encoding="utf-8"?>
<!-- Generator: Adobe Illustrator 16.0.0, SVG Export Plug-In . SVG Version: 6.00 Build 0)  -->
<!DOCTYPE svg PUBLIC "-//W3C//DTD SVG 1.1//EN" "http://www.w3.org/Graphics/SVG/1.1/DTD/svg11.dtd">
<svg version="1.1" id="Capa_1" xmlns="http://www.w3.org/2000/svg" xmlns:xlink="http://www.w3.org/1999/xlink" x="0px" y="0px"
	 width="610px" height="600px" viewBox="394.5 0 610 600" enable-background="new 394.5 0 610 600" xml:space="preserve">
<g>
	<g>
		<path d="M870,296.942c0-14.74-10.551-27.18-25.07-29.59l-33.1-5.52l6.359-31.83h81.81v60h20v-70v-40V96.183l74.47-37.24
			c3.391-1.69,5.53-5.15,5.53-8.94s-2.14-7.25-5.53-8.95l-80-40c-3.109-1.54-6.789-1.39-9.729,0.44c-2.939,1.83-4.74,5.04-4.74,8.51
			v79.999v80H824.6c9.54-10.63,15.4-24.62,15.4-40c0-33.09-26.91-60-60-60s-60,26.91-60,60c0,17.96,7.971,34.06,20.511,45.06
			l-86.149,76.58l-55.93,27.96l-28.68-4.78c12.39-11,20.249-26.99,20.249-44.82c0-33.09-26.909-60-59.999-60s-60,26.91-60,60
			c0,18.25,8.22,34.6,21.12,45.609c-0.14,0.28-0.34,0.5-0.45,0.79l-31,80.6c-5.67,14.77-4.14,30.939,4.21,44.369
			c1.59,2.561,3.44,4.87,5.4,7.061l-27.22,45.369l-39.13,39.13c-3.91,3.91-3.91,10.229,0,14.14l30,30
			c1.949,1.95,4.51,2.93,7.069,2.93c2.561,0,5.12-0.979,7.07-2.93l50-50c0.47-0.47,0.89-0.979,1.25-1.52l38.409-57.62l13.271,1.2
			v40.87h-10c-5.53,0-10,4.47-10,10v72.039l-122.25,28.21c-4.539,1.05-7.749,5.09-7.749,9.75v10h19.999v-2.04l122.25-28.21
			c4.54-1.05,7.75-5.09,7.75-9.75v-69.999h10h49.999h90c2.829,0,5.54-1.2,7.43-3.311l87.02-96.689H810h50h139.999v-20H870V296.942z
			 M919.999,26.184l47.64,23.82l-47.64,23.82V26.184z M740,130.003c0-22.06,17.94-40,40-40c22.061,0,40,17.94,40,40
			s-17.939,40-40,40C757.94,170.003,740,152.063,740,130.003z M725.9,214.802l-15.21,39.54l-28.25,21.3l-9.3-13.95L725.9,214.802z
			 M490.002,230.002c0-22.06,17.939-40,40-40c22.06,0,40,17.94,40,40c0,22.06-17.94,40-40,40
			C507.941,270.002,490.002,252.062,490.002,230.002z M482.232,473.631l-42.23,42.229l-15.859-15.859l32.93-32.93
			c0.58-0.58,1.08-1.221,1.5-1.921l26.85-44.749c5.09,2.33,10.6,3.83,16.38,4.359l12.26,1.11L482.232,473.631z M600.001,470.001
			h-29.999v-50c0-5.18-3.95-9.49-9.091-9.96l-57.289-5.21c-9.45-0.859-17.74-5.97-22.76-14.029
			c-5.011-8.061-5.931-17.75-2.521-26.61l28.53-74.189h32.3l59.189,9.86c2.09,0.34,4.229,0.02,6.11-0.92l52.1-26.05l9.159,13.74
			l-58.39,33.37h-47.339c-4.591,0-8.58,3.12-9.7,7.58l-10,39.999c-0.681,2.71-0.2,5.57,1.34,7.9c1.521,2.33,3.96,3.93,6.72,4.38
			l43.29,7.22c4.83,0.801,8.35,4.95,8.35,9.86V470.001z M800,370.001h-10c-2.83,0-5.54,1.2-7.43,3.311l-87.02,96.689h-75.55v-73.06
			c0-14.74-10.55-27.18-25.069-29.59l-32.61-5.44l5.49-21.909h42.189c1.74,0,3.45-0.46,4.96-1.32l70-40
			c0.149-0.09,0.24-0.25,0.39-0.34c0.21-0.14,0.46-0.2,0.67-0.35l20.89-15.75c0.99,6.67,3.271,13.17,6.971,19.13
			c1.59,2.56,3.439,4.87,5.399,7.06l-27.22,45.37l-39.13,39.13c-3.909,3.909-3.909,10.229,0,14.14l30,30
			c1.95,1.95,4.51,2.93,7.07,2.93c2.56,0,5.12-0.979,7.069-2.93l50-50c0.47-0.47,0.891-0.979,1.25-1.52l38.41-57.62l13.27,1.2
			V370.001z M735.42,320.401c5.091,2.33,10.601,3.83,16.381,4.36l12.26,1.11l-31.84,47.76l-42.22,42.229l-15.86-15.86l32.93-32.93
			c0.58-0.58,1.08-1.22,1.5-1.92L735.42,320.401z M850,370.001h-30v-49.999c0-5.18-3.95-9.49-9.09-9.96l-57.29-5.21
			c-9.45-0.86-17.739-5.97-22.76-14.03c-5.01-8.06-5.93-17.75-2.52-26.61l28.529-74.189h143.129v20H810c-4.77,0-8.87,3.37-9.8,8.04
			l-10,50c-0.53,2.66,0.04,5.41,1.57,7.65c1.54,2.23,3.92,3.73,6.59,4.18l43.289,7.22c4.83,0.79,8.351,4.94,8.351,9.85V370.001z"/>
	</g>
</g>
</svg>
