<?xml version="1.0" encoding="iso-8859-1"?>
<!-- Generator: Adobe Illustrator 16.0.0, SVG Export Plug-In . SVG Version: 6.00 Build 0)  -->
<!DOCTYPE svg PUBLIC "-//W3C//DTD SVG 1.1//EN" "http://www.w3.org/Graphics/SVG/1.1/DTD/svg11.dtd">
<svg version="1.1" id="Capa_1" xmlns="http://www.w3.org/2000/svg" xmlns:xlink="http://www.w3.org/1999/xlink" x="0px" y="0px"
	 width="62.303px" height="62.303px" viewBox="0 0 62.303 62.303" style="enable-background:new 0 0 62.303 62.303;"
	 xml:space="preserve">
<g>
	<g>
		<path d="M29.416,50.568H2V11.734h37.25v20.001c0,0.554,0.445,1,1,1c0.553,0,1-0.446,1-1V10.734c0-0.553-0.447-1-1-1H1
			c-0.554,0-1,0.447-1,1v40.834c0,0.555,0.446,1,1,1h28.416c0.553,0,1-0.445,1-1C30.416,51.016,29.967,50.568,29.416,50.568z"/>
		<path d="M17.918,16.733c-0.392-0.391-1.023-0.391-1.414,0l-4.338,4.337l-2.209-2.209c-0.392-0.391-1.023-0.391-1.414,0
			c-0.392,0.391-0.392,1.023,0,1.414l2.916,2.916c0.194,0.195,0.45,0.293,0.707,0.293c0.256,0,0.512-0.098,0.707-0.293l5.045-5.044
			C18.307,17.756,18.307,17.125,17.918,16.733z"/>
		<path d="M32.416,20.026h-13c-0.554,0-1,0.447-1,1s0.446,1,1,1h13c0.553,0,1-0.447,1-1S32.966,20.026,32.416,20.026z"/>
		<path d="M17.918,26.733c-0.392-0.391-1.023-0.391-1.414,0l-4.338,4.337l-2.209-2.209c-0.392-0.391-1.023-0.391-1.414,0
			c-0.392,0.391-0.392,1.023,0,1.414l2.916,2.916c0.194,0.193,0.45,0.293,0.707,0.293c0.256,0,0.512-0.1,0.707-0.293l5.045-5.044
			C18.307,27.756,18.307,27.125,17.918,26.733z"/>
		<path d="M32.416,30.026h-13c-0.554,0-1,0.447-1,1s0.446,1,1,1h13c0.553,0,1-0.447,1-1S32.966,30.026,32.416,30.026z"/>
		<path d="M16.504,36.733l-4.338,4.337l-2.209-2.209c-0.392-0.393-1.023-0.393-1.414,0c-0.392,0.393-0.392,1.021,0,1.414
			l2.916,2.916c0.194,0.193,0.45,0.293,0.707,0.293c0.256,0,0.512-0.1,0.707-0.293l5.045-5.044c0.391-0.392,0.391-1.022,0-1.414
			C17.526,36.342,16.893,36.342,16.504,36.733z"/>
		<path d="M32.416,40.026h-13c-0.554,0-1,0.447-1,1s0.446,1,1,1h13c0.553,0,1-0.447,1-1S32.966,40.026,32.416,40.026z"/>
		<path d="M51.393,25.694c-0.394-0.391-1.021-0.391-1.414,0c-0.177,0.176-0.263,0.403-0.279,0.633l-1.988,1.989l-0.719-0.689
			c-0.396-0.381-1.031-0.368-1.412,0.029c-0.385,0.399-0.369,1.032,0.027,1.414l0.688,0.66L35.992,40.035
			c-0.129,0.001-0.258,0.018-0.379,0.069C35.24,40.26,35,40.625,35,41.026v10.542c0,0.555,0.447,1,1,1h10.75
			c0.119,0,0.23-0.025,0.342-0.064c0.031-0.013,0.059-0.026,0.09-0.043c0.082-0.041,0.156-0.091,0.227-0.147
			c0.017-0.017,0.037-0.021,0.052-0.035l10.94-10.94l0.824,0.789c0.193,0.188,0.441,0.276,0.691,0.276
			c0.264,0,0.523-0.104,0.723-0.31c0.383-0.397,0.369-1.03-0.027-1.412l-0.797-0.764l2.195-2.193c0.391-0.393,0.391-1.023,0-1.414
			L51.393,25.694z M53.529,36.666l-9.998,10.346l-2.646-2.596l10.271-10.024L53.529,36.666z M39.457,43.017l-1.826-1.791
			l10.109-10.11l1.973,1.891L39.457,43.017z M39.963,50.568l-2.881-2.579c-0.023-0.021-0.059-0.028-0.084-0.049v-4.533l7.303,7.161
			H39.963z M46.742,50.161l-1.783-1.747l10.016-10.363l1.98,1.896L46.742,50.161z M52.041,32.465
			c-0.041-0.069-0.072-0.146-0.133-0.205c-0.084-0.086-0.182-0.146-0.281-0.191L49.156,29.7l1.709-1.708l9.021,9.023l-1.519,1.518
			L52.041,32.465z"/>
	</g>
</g>
<g>
</g>
<g>
</g>
<g>
</g>
<g>
</g>
<g>
</g>
<g>
</g>
<g>
</g>
<g>
</g>
<g>
</g>
<g>
</g>
<g>
</g>
<g>
</g>
<g>
</g>
<g>
</g>
<g>
</g>
</svg>
