<?xml version="1.0" standalone="no"?><!DOCTYPE svg PUBLIC "-//W3C//DTD SVG 1.1//EN" "http://www.w3.org/Graphics/SVG/1.1/DTD/svg11.dtd"><svg xmlns:xlink="http://www.w3.org/1999/xlink" version="1.1" style="font-family:dosis, sans-serif;font-size:12px;" xmlns="http://www.w3.org/2000/svg" width="600" height="400"><desc>Created with Highcharts 4.2.7</desc><defs><clipPath id="highcharts-35"><rect x="1" y="1" width="578" height="314"></rect></clipPath></defs><rect x="1" y="1" width="598" height="398" fill="none" class=" highcharts-background"></rect><rect x="10" y="10" width="580" height="316" fill="#ffffff"></rect><rect x="10" y="10" width="580" height="316" stroke="#ffffff" stroke-width="2" fill="none"></rect><g class="highcharts-series-group"><g class="highcharts-series highcharts-series-0" transform="translate(10,10) scale(1 1)"><path fill="#50B432" d="M 289.9758647253621 41.50000245785438 A 118.5 118.5 0 0 1 331.27792596447074 48.92172657053193 L 290 160 A 0 0 0 0 0 290 160 Z" stroke="#FFFFFF" stroke-width="1" stroke-linejoin="round" transform="translate(0,0)"></path><path fill="#ED561B" d="M 331.3889835804259 48.96306002874883 A 118.5 118.5 0 0 1 370.0601824349621 72.63514901013916 L 290 160 A 0 0 0 0 0 290 160 Z" stroke="#FFFFFF" stroke-width="1" stroke-linejoin="round" transform="translate(0,0)"></path><path fill="#DDDF00" d="M 370.1475072413033 72.71525286165262 A 118.5 118.5 0 0 1 406.751465105273 139.71834829772914 L 290 160 A 0 0 0 0 0 290 160 Z" stroke="#FFFFFF" stroke-width="1" stroke-linejoin="round" transform="translate(0,0)"></path><path fill="#24CBE5" d="M 406.7716883778673 139.83510988420085 A 118.5 118.5 0 0 1 367.6724378844451 249.49437073406915 L 290 160 A 0 0 0 0 0 290 160 Z" stroke="#FFFFFF" stroke-width="1" stroke-linejoin="round" transform="translate(0,0)"></path><path fill="#64E572" d="M 367.5829046924111 249.57199841182654 A 118.5 118.5 0 0 1 251.91453591754316 272.2129556941795 L 290 160 A 0 0 0 0 0 290 160 Z" stroke="#FFFFFF" stroke-width="1" stroke-linejoin="round" transform="translate(0,0)"></path><path fill="#FF9655" d="M 251.8023420232816 272.1748141299714 A 118.5 118.5 0 0 1 172.08501587588233 148.2396207965439 L 290 160 A 0 0 0 0 0 290 160 Z" stroke="#FFFFFF" stroke-width="1" stroke-linejoin="round" transform="translate(0,0)"></path><path fill="#FFF263" d="M 172.09683521061288 148.1217117122614 A 118.5 118.5 0 0 1 289.83540587733853 41.50011430902228 L 290 160 A 0 0 0 0 0 290 160 Z" stroke="#FFFFFF" stroke-width="1" stroke-linejoin="round" transform="translate(0,0)"></path></g><g class="highcharts-markers highcharts-series-0" transform="translate(10,10) scale(1 1)"></g></g><g class="highcharts-data-labels highcharts-series-0" transform="translate(10,10) scale(1 1)" opacity="1"><path fill="none" d="M 321.36664964376394 11 C 316.36664964376394 11 314.9462240737297 21.232375790775677 312.99313891493233 32.05759903847296 L 311.04005375613497 42.88282228617024" stroke="#50B432" stroke-width="1"></path><path fill="none" d="M 372.5910368603184 32.882935593417315 C 367.5910368603184 32.882935593417315 363.4110483425908 39.70405690825005 357.6635641307154 49.08309871614507 L 351.91607991883996 58.46214052404008" stroke="#ED561B" stroke-width="1"></path><path fill="none" d="M 425.33532995073745 88.33152547207156 C 420.33532995073745 88.33152547207156 413.3138980341994 92.16551736583202 403.6594291489596 97.43725621975264 L 394.0049602637198 102.70899507367326" stroke="#DDDF00" stroke-width="1"></path><path fill="none" d="M 434.8638880004694 209.40333489249136 C 429.8638880004694 209.40333489249136 422.3291330913532 206.71493974676793 411.9688450913184 203.0183964213982 L 401.60855709128367 199.32185309602846" stroke="#24CBE5" stroke-width="1"></path><path fill="none" d="M 323.4507721126294 305.2491117166593 C 318.4507721126294 305.2491117166593 316.91807058467606 297.3973077184554 314.8106059837406 286.6010772209251 L 312.7031413828051 275.8048467233948" stroke="#64E572" stroke-width="1"></path><path fill="none" d="M 160.07385037456964 239.78516139215634 C 165.07385037456964 239.78516139215634 171.8038786372191 235.46003485251157 181.0576674983621 229.51298586049998 L 190.3114563595051 223.5659368684884" stroke="#FF9655" stroke-width="1"></path><path fill="none" d="M 185.37173756482474 49.37979602203852 C 190.37173756482474 49.37979602203852 195.73891668591165 55.312197583140815 203.1187879774061 63.46924972965648 L 210.49865926890055 71.62630187617215" stroke="#FFF263" stroke-width="1"></path><g style="cursor:pointer;" transform="translate(326,1)"><text x="5" style="font-size:10px;font-weight:bold;font-family:'arial', sans-serif;color:#000;text-shadow:none;fill:#000;text-rendering:geometricprecision;" y="15"><tspan>Too Busy: 25</tspan></text></g><g style="cursor:pointer;" transform="translate(378,23)"><text x="5" style="font-size:10px;font-weight:bold;font-family:'arial', sans-serif;color:#000;text-shadow:none;fill:#000;text-rendering:geometricprecision;" y="15"><tspan>No companion: 27</tspan></text></g><g style="cursor:pointer;" transform="translate(430,78)"><text x="5" style="font-size:10px;font-weight:bold;font-family:'arial', sans-serif;color:#000;text-shadow:none;fill:#000;text-rendering:geometricprecision;" y="15"><tspan>Physical Pain: 46</tspan></text></g><g style="cursor:pointer;" transform="translate(440,199)"><text x="5" style="font-size:10px;font-weight:bold;font-family:'arial', sans-serif;color:#000;text-shadow:none;fill:#000;text-rendering:geometricprecision;" y="15"><tspan>Didn't want to: 72</tspan></text></g><g style="cursor:pointer;" transform="translate(328,295)"><text x="5" style="font-size:10px;font-weight:bold;font-family:'arial', sans-serif;color:#000;text-shadow:none;fill:#000;text-rendering:geometricprecision;" y="15"><tspan>Low Energy: 73</tspan></text></g><g style="cursor:pointer;" transform="translate(81,230)"><text x="5" style="font-size:10px;font-weight:bold;font-family:'arial', sans-serif;color:#000;text-shadow:none;fill:#000;text-rendering:geometricprecision;" y="15"><tspan>Had Work: 94</tspan></text></g><g style="cursor:pointer;" transform="translate(101,39)"><text x="5" style="font-size:10px;font-weight:bold;font-family:'arial', sans-serif;color:#000;text-shadow:none;fill:#000;text-rendering:geometricprecision;" y="15"><tspan>Low Time: 103</tspan></text></g></g><g class="highcharts-legend" transform="translate(18,338)"><g><g><g class="highcharts-legend-item" transform="translate(8,3)"><text x="21" style="color:#333;font-size:9pt;font-weight:normal;cursor:pointer;font-family:'lucida grande','lucida sans unicode',arial,helvetica,sans-serif;text-transform:none;fill:#333;" text-anchor="start" y="15"><tspan>Too Busy</tspan></text><rect x="0" y="4" width="16" height="12" fill="#50B432"></rect></g><g class="highcharts-legend-item" transform="translate(103.59375,3)"><text x="21" y="15" style="color:#333;font-size:9pt;font-weight:normal;cursor:pointer;font-family:'lucida grande','lucida sans unicode',arial,helvetica,sans-serif;text-transform:none;fill:#333;" text-anchor="start"><tspan>No companion</tspan></text><rect x="0" y="4" width="16" height="12" fill="#ED561B"></rect></g><g class="highcharts-legend-item" transform="translate(229.25,3)"><text x="21" y="15" style="color:#333;font-size:9pt;font-weight:normal;cursor:pointer;font-family:'lucida grande','lucida sans unicode',arial,helvetica,sans-serif;text-transform:none;fill:#333;" text-anchor="start"><tspan>Physical Pain</tspan></text><rect x="0" y="4" width="16" height="12" fill="#DDDF00"></rect></g><g class="highcharts-legend-item" transform="translate(344.390625,3)"><text x="21" y="15" style="color:#333;font-size:9pt;font-weight:normal;cursor:pointer;font-family:'lucida grande','lucida sans unicode',arial,helvetica,sans-serif;text-transform:none;fill:#333;" text-anchor="start"><tspan>Didn't want to</tspan></text><rect x="0" y="4" width="16" height="12" fill="#24CBE5"></rect></g><g class="highcharts-legend-item" transform="translate(467.96875,3)"><text x="21" y="15" style="color:#333;font-size:9pt;font-weight:normal;cursor:pointer;font-family:'lucida grande','lucida sans unicode',arial,helvetica,sans-serif;text-transform:none;fill:#333;" text-anchor="start"><tspan>Low Energy</tspan></text><rect x="0" y="4" width="16" height="12" fill="#64E572"></rect></g><g class="highcharts-legend-item" transform="translate(8,21)"><text x="21" y="15" style="color:#333;font-size:9pt;font-weight:normal;cursor:pointer;font-family:'lucida grande','lucida sans unicode',arial,helvetica,sans-serif;text-transform:none;fill:#333;" text-anchor="start"><tspan>Had Work</tspan></text><rect x="0" y="4" width="16" height="12" fill="#FF9655"></rect></g><g class="highcharts-legend-item" transform="translate(106.328125,21)"><text x="21" y="15" style="color:#333;font-size:9pt;font-weight:normal;cursor:pointer;font-family:'lucida grande','lucida sans unicode',arial,helvetica,sans-serif;text-transform:none;fill:#333;" text-anchor="start"><tspan>Low Time</tspan></text><rect x="0" y="4" width="16" height="12" fill="#FFF263"></rect></g></g></g></g><g class="highcharts-tooltip" display="none" style="cursor:default;padding:0;pointer-events:none;white-space:nowrap;" transform="translate(0,0)"><path fill="rgb(0, 0, 0)" fill-opacity=" 0.75" d="M 3.5 0.5 L 13.5 0.5 C 16.5 0.5 16.5 0.5 16.5 3.5 L 16.5 13.5 C 16.5 16.5 16.5 16.5 13.5 16.5 L 3.5 16.5 C 0.5 16.5 0.5 16.5 0.5 13.5 L 0.5 3.5 C 0.5 0.5 0.5 0.5 3.5 0.5"></path><text x="8" style="font-size:12px;color:#000000;fill:#000000;" y="20"></text></g><text x="590" text-anchor="end" style="cursor:pointer;color:#666;font-size:9px;fill:#666;" y="395">meta-chart.com</text></svg>