<svg height="512pt" viewBox="0 0 512 512" width="512pt" xmlns="http://www.w3.org/2000/svg"><path d="m460.800781 102.398438h-110.933593c-.011719-14.535157-6.21875-28.378907-17.066407-38.058594v-30.207032c0-18.851562-15.28125-34.132812-34.132812-34.132812-18.851563 0-34.132813 15.28125-34.132813 34.132812v30.207032c-10.851562 9.679687-17.058594 23.523437-17.070312 38.058594h-145.066406v-17.066407c0-28.277343-22.921876-51.199219-51.199219-51.199219-28.277344 0-51.199219 22.921876-51.199219 51.199219v375.46875c.0273438 28.265625 22.933594 51.171875 51.199219 51.199219h409.601562c28.265625-.027344 51.171875-22.933594 51.199219-51.199219v-307.199219c-.027344-28.265624-22.933594-51.171874-51.199219-51.203124zm-41.8125 245.761718-43.402343-93.125-50.722657-108.730468c5.097657-3.027344 9.636719-6.910157 13.414063-11.476563l85.957031 184.320313c4.5625 9.800781 2.472656 21.414062-5.222656 29.011718zm-240.640625 0c-7.710937-7.605468-9.796875-19.242187-5.214844-29.054687l85.921876-184.277344c3.773437 4.578125 8.3125 8.472656 13.414062 11.511719l-50.6875 108.628906zm110.078125-195.585937c6.785157 1.390625 13.78125 1.390625 20.566407 0l47.222656 101.242187c-37 14.3125-78.011719 14.3125-115.011719 0zm-6.824219-118.441407c0-9.425781 7.640626-17.066406 17.066407-17.066406s17.066406 7.640625 17.066406 17.066406v20.054688c-11.03125-3.984375-23.105469-3.984375-34.132813 0zm17.066407 34.132813c18.851562 0 34.132812 15.28125 34.132812 34.132813 0 18.851562-15.28125 34.136718-34.132812 34.136718-18.851563 0-34.132813-15.285156-34.132813-34.136718 0-18.851563 15.28125-34.132813 34.132813-34.132813zm-247.46875-17.066406c18.851562 0 34.132812 15.28125 34.132812 34.132812v303.277344c-19.382812-17.523437-48.882812-17.523437-68.265625 0v-303.277344c0-18.851562 15.28125-34.132812 34.132813-34.132812zm443.734375 409.601562c0 18.851563-15.28125 34.132813-34.132813 34.132813h-409.601562c-18.851563 0-34.132813-15.28125-34.132813-34.132813v-34.132812c0-18.851563 15.28125-34.132813 34.132813-34.132813 18.851562 0 34.132812 15.28125 34.132812 34.132813 0 4.710937 3.820313 8.53125 8.535157 8.53125 4.710937 0 8.53125-3.820313 8.53125-8.53125v-307.203125h144.972656l-89.71875 192.386718c-8.605469 18.355469-3.078125 40.238282 13.21875 52.300782l-7.570313 16.210937c-1.40625 2.78125-1.1875 6.105469.574219 8.675781 1.757812 2.574219 4.78125 3.980469 7.878906 3.671876 3.101563-.304688 5.789063-2.277344 7.011719-5.144532l18.03125-38.664062 37.136719-79.625c41.59375 16.417968 87.871094 16.417968 129.46875 0l37.136718 79.625 18.03125 38.664062c1.21875 2.867188 3.90625 4.839844 7.007813 5.144532 3.101563.308593 6.121094-1.097657 7.882813-3.671876 1.757812-2.570312 1.976562-5.894531.570312-8.675781l-7.570312-16.210937c16.289062-12.058594 21.824218-33.929688 13.226562-52.285156l-89.726562-192.402344h110.839843c18.851563 0 34.132813 15.285156 34.132813 34.136718zm0 0"/><path d="m293.878906 109.484375c.480469.320313 1 .578125 1.546875.765625.480469.246094 1 .417969 1.535157.511719.5625.097656 1.132812.152343 1.707031.171875.539062-.015625 1.078125-.070313 1.613281-.171875.566406-.078125 1.117188-.25 1.628906-.511719.523438-.171875 1.011719-.429688 1.449219-.765625.488281-.296875.945313-.640625 1.367187-1.027344 3.3125-3.339843 3.296876-8.726562-.035156-12.050781-3.328125-3.320312-8.71875-3.320312-12.050781 0-3.332031 3.324219-3.34375 8.710938-.03125 12.050781.402344.367188.828125.707031 1.269531 1.027344zm0 0"/><path d="m400.410156 423.40625c-.429687-1.039062-1.058594-1.984375-1.851562-2.78125l-25.601563-25.601562c-3.347656-3.230469-8.667969-3.1875-11.960937.105468-3.292969 3.292969-3.339844 8.613282-.105469 11.960938l11.042969 11.042968h-146.535156l11.035156-11.03125c3.234375-3.351562 3.1875-8.671874-.105469-11.964843-3.289063-3.289063-8.613281-3.335938-11.960937-.101563l-25.601563 25.597656c-.722656.738282-1.300781 1.609376-1.707031 2.5625-.113282.277344-.214844.5625-.296875.851563-.226563.683594-.367188 1.394531-.417969 2.117187 0 .296876-.050781.570313 0 .851563.027344.921875.207031 1.832031.527344 2.699219 0 .074218 0 .152344.050781.21875.417969.933594.996094 1.78125 1.707031 2.511718.070313.074219.09375.175782.171875.253907l25.601563 25.601562c3.347656 3.234375 8.667968 3.1875 11.960937-.105469 3.292969-3.292968 3.335938-8.613281.105469-11.960937l-11.070312-11.035156h146.535156l-11.035156 11.035156c-2.214844 2.140625-3.105469 5.3125-2.324219 8.296875s3.109375 5.316406 6.09375 6.09375c2.984375.78125 6.15625-.105469 8.296875-2.324219l25.601562-25.601562c2.441406-2.441407 3.171875-6.109375 1.851563-9.300781zm0 0"/><path d="m128 179.199219c4.710938 0 8.535156-3.820313 8.535156-8.53125v-17.066407h17.066406c4.710938 0 8.53125-3.820312 8.53125-8.535156 0-4.710937-3.820312-8.53125-8.53125-8.53125h-25.601562c-4.710938 0-8.535156 3.820313-8.535156 8.53125v25.601563c0 4.710937 3.824218 8.53125 8.535156 8.53125zm0 0"/><path d="m469.332031 136.535156h-25.597656c-4.714844 0-8.535156 3.820313-8.535156 8.53125 0 4.714844 3.820312 8.535156 8.535156 8.535156h17.066406v17.066407c0 4.710937 3.820313 8.53125 8.53125 8.53125 4.714844 0 8.535157-3.820313 8.535157-8.53125v-25.601563c0-4.710937-3.820313-8.53125-8.535157-8.53125zm0 0"/><path d="m153.601562 460.800781h-17.066406v-17.066406c0-4.714844-3.824218-8.535156-8.535156-8.535156s-8.535156 3.820312-8.535156 8.535156v25.597656c0 4.714844 3.824218 8.535157 8.535156 8.535157h25.601562c4.710938 0 8.53125-3.820313 8.53125-8.535157 0-4.710937-3.820312-8.53125-8.53125-8.53125zm0 0"/><path d="m469.332031 435.199219c-4.710937 0-8.53125 3.820312-8.53125 8.535156v17.066406h-17.066406c-4.714844 0-8.535156 3.820313-8.535156 8.53125 0 4.714844 3.820312 8.535157 8.535156 8.535157h25.597656c4.714844 0 8.535157-3.820313 8.535157-8.535157v-25.597656c0-4.714844-3.820313-8.535156-8.535157-8.535156zm0 0"/></svg>