<svg height="512pt" viewBox="0 0 512 512" width="512pt" xmlns="http://www.w3.org/2000/svg"><path d="m256 512c-68.378906 0-132.667969-26.628906-181.019531-74.980469-48.351563-48.351562-74.980469-112.640625-74.980469-181.019531s26.628906-132.667969 74.980469-181.019531c48.351562-48.351563 112.640625-74.980469 181.019531-74.980469s132.667969 26.628906 181.019531 74.980469c48.351563 48.351562 74.980469 112.640625 74.980469 181.019531s-26.628906 132.667969-74.980469 181.019531c-48.351562 48.351563-112.640625 74.980469-181.019531 74.980469zm0-492c-63.039062 0-122.304688 24.546875-166.878906 69.121094-44.574219 44.574218-69.121094 103.839844-69.121094 166.878906s24.546875 122.304688 69.121094 166.878906c44.574218 44.574219 103.839844 69.121094 166.878906 69.121094s122.304688-24.546875 166.878906-69.121094c44.574219-44.574218 69.121094-103.839844 69.121094-166.878906s-24.546875-122.304688-69.121094-166.878906c-44.574218-44.574219-103.839844-69.121094-166.878906-69.121094zm0 0"/><path d="m296.304688 457.789062c-4.636719 0-8.792969-3.238281-9.78125-7.953124-1.128907-5.40625 2.335937-10.703126 7.742187-11.835938 41.167969-8.605469 78.636719-31.351562 105.503906-64.046875 27.234375-33.132813 42.230469-75.042969 42.230469-118.015625 0-102.558594-83.4375-186-186-186s-186 83.441406-186 186c0 42.914062 14.960938 84.785156 42.132812 117.898438 26.804688 32.667968 64.195313 55.433593 105.289063 64.097656 5.402344 1.140625 8.859375 6.445312 7.722656 11.847656-1.140625 5.40625-6.441406 8.859375-11.847656 7.722656-45.527344-9.601562-86.949219-34.808594-116.628906-70.980468-30.09375-36.679688-46.667969-83.054688-46.667969-130.585938 0-113.589844 92.410156-206 206-206s206 92.410156 206 206c0 47.589844-16.613281 94.011719-46.777344 130.714844-29.75 36.203125-71.253906 61.390625-116.863281 70.925781-.6875.144531-1.378906.210937-2.054687.210937zm0 0"/><path d="m256.019531 462.0625c-5.523437 0-10.003906-4.476562-10.003906-10s4.472656-10 9.996094-10h.007812c5.523438 0 10 4.476562 10 10s-4.476562 10-10 10zm0 0"/><path d="m376 256c-11.855469 0-23.78125.402344-35.628906 0-18.777344-.640625-13.152344-18.996094-18.78125-32.652344-16.648438-40.402344-74.820313-47.882812-107.511719-23.410156 6.410156 6.410156 34.429687 27.621094 16.335937 35.863281-8.714843 3.972657-24.140624.703125-33.28125.671875-15.640624-.054687-31.414062.503906-47.042968-.160156-12.597656-.535156-14.050782-7.796875-14.050782-18.714844 0-16.230468-.003906-32.460937-.003906-48.691406-.003906-8.613281-4.121094-32.910156 10.019532-32.878906 7.082031.019531 13.671874 9.554687 18.15625 14.039062 1.394531 1.398438 5.117187 6.546875 6.945312 6.945313 2.339844.511719 11.695312-8.546875 14.664062-10.457031 27.832032-17.882813 61.171876-23.726563 93.6875-18.78125 31.972657 4.859374 62.570313 20.636718 82.566407 46.445312 7.605469 9.820312 42.5625 81.78125 13.925781 81.78125zm-30.574219-20h20.125c-4.683593-51.265625-48.414062-85.207031-97.738281-89.472656-24.976562-2.164063-49.976562 3.234375-71.167969 16.84375-6.984375 4.488281-17.070312 17.777344-25.496093 17.78125-6.175782 0-11.125-6.984375-15.113282-10.976563v23.078125c0 2.601563-2.148437 21.273438.003906 23.078125 2.847657 2.386719 18.320313.0625 21.765626.074219 8.179687.027344 16.359374.054688 24.542968.082031-3.167968-3.167969-7.46875-6.300781-9.988281-9.988281-7.304687-10.679688 3.257813-18.003906 11.523437-23.882812 18.8125-13.382813 41.640626-18.335938 64.441407-16.003907 38.445312 3.9375 72.429687 29.371094 77.101562 69.386719zm0 0"/><path d="m256 386c-44.496094 0-89.570312-19.71875-113.242188-58.636719-9.417968-15.484375-20.6875-42.550781-16.757812-61.363281 2.757812-13.195312 16.828125-10 27.28125-10 7.742188 0 25.222656-3.160156 30.789062 4.09375 3.660157 4.769531 2.207032 14.363281 3.640626 20.25 1.855468 7.636719 5.273437 14.902344 10.082031 21.128906 22.675781 29.371094 71.46875 32.042969 100.128906 10.589844-6.199219-6.199219-14.640625-12.339844-19.5625-19.5625-8.707031-12.773438 4.082031-17.082031 14.121094-17.046875 23.085937.078125 46.363281-.746094 69.425781.230469 8.335938.355468 13.070312 2.820312 14.050781 11.882812 1.058594 9.785156.003907 20.277344.003907 30.109375.003906 12.578125.003906 25.15625.007812 37.734375 0 8.46875.410156 25.078125-13.804688 19.804688-5.0625-1.875-9.769531-8.679688-13.402343-12.308594-8.042969-8.046875-6.359375-9.070312-16.003907-1.976562-22.117187 16.257812-49.324218 25.070312-76.757812 25.070312zm-109.550781-110c4.683593 51.265625 48.414062 85.207031 97.738281 89.472656 24.980469 2.164063 49.976562-3.234375 71.167969-16.84375 6.984375-4.488281 17.070312-17.78125 25.496093-17.78125 6.175782 0 11.125 6.984375 15.113282 10.976563 0-7.695313 0-15.386719 0-23.078125 0-2.601563 2.148437-21.273438-.003906-23.078125-2.847657-2.386719-18.320313-.0625-21.765626-.074219-8.179687-.027344-16.359374-.054688-24.542968-.082031 4.132812 4.128906 11.371094 9.140625 12.535156 15.144531 2.023438 10.40625-14.707031 19.679688-22.34375 23.949219-23.292969 13.015625-51.714844 14.441406-76.972656 6.585937-20.425782-6.351562-38.433594-19.675781-48.375-38.878906-2.648438-5.113281-5.15625-23.976562-8.390625-26.3125-3.214844-2.320312-15.503907 0-19.65625 0zm0 0"/></svg>