<svg id="Capa_1" enable-background="new 0 0 512 512" height="512" viewBox="0 0 512 512" width="512" xmlns="http://www.w3.org/2000/svg"><g><g><g><path d="m462 .014h-412c-27.57 0-50 22.43-50 50v120c0 27.57 22.43 50 50 50h134.057l32.231 120.289-10.066-6.98c-15.087-10.461-35.858-7.4-47.286 6.971-9.385 11.805-10.157 28.223-1.919 40.855 28.353 43.477 70.78 77.226 119.516 95.078l7.595 28.348c.687 2.562 2.362 4.746 4.659 6.072 1.533.886 3.26 1.34 5 1.34.867 0 1.736-.112 2.588-.341l133.359-35.733c2.562-.687 4.746-2.362 6.072-4.659s1.686-5.026.999-7.588l-8.789-32.8c9.934-20.373 12.177-43.464 6.279-65.472l-22.965-85.705c-2.282-8.518-7.744-15.636-15.38-20.045-7.636-4.407-16.531-5.579-25.05-3.298-4.548 1.219-8.615 3.342-12.072 6.116-6.094-15.337-22.887-24.052-39.206-19.677-5.523 1.48-10.451 4.304-14.441 8.183-7.992-9.561-21.088-14.192-33.894-10.759-4.461 1.195-8.461 3.258-11.875 5.954l-7.006-26.148h115.094c5.522 0 10-4.478 10-10s-4.478-10-10-10h-120.457c-2.31-8.437-7.745-15.486-15.327-19.864-7.637-4.409-16.533-5.581-25.049-3.297-8.517 2.282-15.636 7.744-20.044 15.38-1.431 2.479-2.515 5.092-3.257 7.781h-133.366c-16.542 0-30-13.458-30-30v-120c0-16.542 13.458-30 30-30h412c16.542 0 30 13.458 30 30v120c0 16.542-13.458 30-30 30h-4.499c-5.522 0-10 4.478-10 10s4.478 10 10 10h4.499c27.57 0 50-22.43 50-50v-120c0-27.572-22.43-50.001-50-50.001zm-258.057 202.218c1.738-3.009 4.543-5.162 7.901-6.062 3.357-.901 6.863-.438 9.872 1.299 3.01 1.738 5.163 4.544 6.062 7.9l40.567 151.398c1.197 4.468 5.237 7.415 9.653 7.415.856 0 1.728-.111 2.594-.344 5.335-1.43 8.501-6.913 7.071-12.247l-20.401-76.14c-1.851-6.927 2.275-14.071 9.202-15.927 6.936-1.854 14.078 2.271 15.935 9.199l20.399 76.132c1.197 4.468 5.237 7.415 9.653 7.415.856 0 1.728-.111 2.594-.344 5.335-1.43 8.501-6.913 7.071-12.247l-16.519-61.65c-1.852-6.927 2.274-14.073 9.202-15.929 3.357-.898 6.863-.438 9.873 1.3 3.009 1.738 5.162 4.544 6.062 7.9l16.518 61.644c1.43 5.335 6.915 8.501 12.247 7.071 5.335-1.43 8.501-6.913 7.071-12.247l-9.694-36.18c-1.85-6.927 2.276-14.07 9.202-15.926 3.357-.898 6.862-.438 9.873 1.3 3.009 1.738 5.162 4.544 6.062 7.9l22.965 85.705c4.92 18.362 2.644 37.68-6.411 54.396-1.219 2.249-1.528 4.88-.866 7.351l7.199 26.866-114.041 30.558-6.354-23.718c-.845-3.152-3.175-5.694-6.241-6.81l-4.39-1.597c-44.901-16.333-84.003-47.37-110.103-87.392-3.525-5.406-3.195-12.432.822-17.483 4.888-6.149 13.776-7.463 20.234-2.982l32.484 22.524.004-.006c1.648 1.141 3.624 1.792 5.688 1.792.856 0 1.728-.111 2.595-.344 5.334-1.43 8.5-6.913 7.071-12.247l-40.024-149.371c-.901-3.356-.439-6.862 1.298-9.872z"/><path d="m289.942 70.014v46.592l-32.495-51.76c-2.37-3.774-6.952-5.529-11.236-4.292-4.283 1.232-7.233 5.152-7.233 9.609v79.851c0 5.522 4.477 10 10 10s10-4.478 10-10v-45.115l30.615 48.767c2.785 4.425 7.642 6.401 12.376 5.036 4.843-1.396 7.973-5.865 7.973-11.384v-77.304c0-5.522-4.478-10-10-10s-10 4.477-10 10z"/><path d="m113.667 70.014v80c0 5.522 4.477 10 10 10s10-4.478 10-10v-80c0-5.522-4.477-10-10-10s-10 4.477-10 10z"/><path d="m188.057 80.014c6.013 0 11.811 1.77 16.767 5.118 4.577 3.092 10.793 1.887 13.884-2.689 3.091-4.577 1.887-10.793-2.689-13.885-8.275-5.589-17.945-8.544-27.962-8.544-27.57 0-50 22.43-50 50s22.43 50 50 50c26.219 0 44.53-20.561 44.53-50 0-5.522-4.477-10-10-10h-23.932c-5.523 0-10 4.478-10 10s4.477 10 10 10h12.775c-2.552 10.601-9.566 20-23.374 20-16.542 0-30-13.458-30-30s13.459-30 30.001-30z"/><path d="m75.097 140.014c-6.89 0-13.646-2.438-18.538-6.688-4.169-3.624-10.485-3.181-14.107.988-3.623 4.169-3.18 10.485.989 14.107 8.602 7.476 19.844 11.592 31.656 11.592 16.859 0 31.017-10.758 33.664-25.58 1.991-11.154-3.072-25.726-23.256-33.171-9.826-3.625-18.975-7.572-21.783-8.802-2.177-1.75-2.104-4.188-1.958-5.205.203-1.412 1.229-4.863 6.364-6.41 11.274-3.397 21.732 4.862 22.016 5.09 4.228 3.508 10.499 2.945 14.037-1.264 3.554-4.228 3.007-10.536-1.22-14.09-.755-.634-18.746-15.469-40.603-8.887-11.045 3.328-18.858 12.034-20.392 22.72-1.439 10.026 2.907 19.671 11.342 25.17.442.288 12.867 5.866 25.274 10.442 3.507 1.294 11.551 4.945 10.489 10.892-.798 4.471-6.243 9.096-13.974 9.096z"/><path d="m348.076 60.014c-5.522 0-10 4.478-10 10v59.353c0 10.616 5.047 19.225 15.002 25.585 5.245 3.351 11.157 5.054 17.571 5.062h.052c5.51 0 10.689-1.201 15.396-3.57 11.594-5.84 17.979-15.473 17.979-27.125v-59.305c0-5.522-4.478-10-10-10s-10 4.478-10 10v59.305c0 2.843-.829 6.167-6.974 9.262-1.916.965-4.01 1.434-6.401 1.434-.008 0-.017 0-.024 0-2.583-.004-4.818-.631-6.832-1.917-4.804-3.069-5.769-5.616-5.769-8.73v-59.354c0-5.523-4.477-10-10-10z"/><circle cx="412.5" cy="210.014" r="10"/></g></g><path d="m439.31 60.014h-17.275c-2.657 0-5.206 1.058-7.082 2.94-1.869 1.874-2.917 4.413-2.917 7.06h-.001v80c0 5.522 4.478 10 10 10s10-4.478 10-10v-24.821c2.571-.015 5.203-.027 7.275-.027 18.206 0 33.019-14.613 33.019-32.576s-14.813-32.576-33.019-32.576zm0 45.152c-2.053 0-4.638.011-7.175.025-.023-4.621-.058-20.346-.071-25.178h7.246c7.057 0 13.019 5.759 13.019 12.576s-5.963 12.577-13.019 12.577z"/></g></svg>