<?xml version="1.0"?>
<svg xmlns="http://www.w3.org/2000/svg" viewBox="0 0 64 64" width="512" height="512"><g id="Sign"><path d="M45,19A13,13,0,1,0,32,32,13.015,13.015,0,0,0,45,19ZM21,19A11,11,0,1,1,32,30,11.013,11.013,0,0,1,21,19Z"/><path d="M41,21V17a1,1,0,0,0-1-1H24a1,1,0,0,0-1,1v4a1,1,0,0,0,1,1H40A1,1,0,0,0,41,21Zm-2-1H25V18H39Z"/><path d="M41,57a1,1,0,0,0-1-1H36V35.505a17,17,0,1,0-8,0V56H24a1,1,0,0,0-1,1v3H18v2H46V60H41ZM17,19A15,15,0,1,1,32,34,15.017,15.017,0,0,1,17,19ZM30,35.872a15.689,15.689,0,0,0,4,0V56H30ZM25,60V58H39v2Z"/></g></svg>
