<?xml version="1.0" standalone="no"?><!DOCTYPE svg PUBLIC "-//W3C//DTD SVG 1.1//EN" "http://www.w3.org/Graphics/SVG/1.1/DTD/svg11.dtd"><svg xmlns:xlink="http://www.w3.org/1999/xlink" version="1.1" style="font-family:dosis, sans-serif;font-size:12px;" xmlns="http://www.w3.org/2000/svg" width="600" height="400"><desc>Created with Highcharts 4.2.7</desc><defs><clipPath id="highcharts-41"><rect x="1" y="1" width="578" height="314"></rect></clipPath></defs><rect x="1" y="1" width="598" height="398" fill="none" class=" highcharts-background"></rect><rect x="10" y="10" width="580" height="316" fill="#ffffff"></rect><rect x="10" y="10" width="580" height="316" stroke="#ffffff" stroke-width="2" fill="none"></rect><g class="highcharts-series-group"><g class="highcharts-series highcharts-series-0" transform="translate(10,10) scale(1 1)"><path fill="#50B432" d="M 322.97657758157504 43.00000238525952 A 115 115 0 0 1 404.5931392027727 76.95951854142922 L 323 158 A 0 0 0 0 0 323 158 Z" stroke="#FFFFFF" stroke-width="1" stroke-linejoin="round" transform="translate(0,0)"></path><path fill="#ED561B" d="M 404.6741388741583 77.0411521872705 A 115 115 0 0 1 437.02961777720066 172.90792640126492 L 323 158 A 0 0 0 0 0 323 158 Z" stroke="#FFFFFF" stroke-width="1" stroke-linejoin="round" transform="translate(0,0)"></path><path fill="#DDDF00" d="M 437.0146528384799 173.02194854607458 A 115 115 0 0 1 369.66094122255123 263.108308730688 L 323 158 A 0 0 0 0 0 323 158 Z" stroke="#FFFFFF" stroke-width="1" stroke-linejoin="round" transform="translate(0,0)"></path><path fill="#24CBE5" d="M 369.5558096008699 263.1549171099837 A 115 115 0 0 1 253.4764888283381 249.60502930714995 L 323 158 A 0 0 0 0 0 323 158 Z" stroke="#FFFFFF" stroke-width="1" stroke-linejoin="round" transform="translate(0,0)"></path><path fill="#64E572" d="M 253.38491857605115 249.5354600050547 A 115 115 0 0 1 213.21843526233295 123.75079499098673 L 323 158 A 0 0 0 0 0 323 158 Z" stroke="#FFFFFF" stroke-width="1" stroke-linejoin="round" transform="translate(0,0)"></path><path fill="#FF9655" d="M 213.25273935241157 123.64103056914708 A 115 115 0 0 1 322.8402673071218 43.000110932806436 L 323 158 A 0 0 0 0 0 323 158 Z" stroke="#FFFFFF" stroke-width="1" stroke-linejoin="round" transform="translate(0,0)"></path></g><g class="highcharts-markers highcharts-series-0" transform="translate(10,10) scale(1 1)"></g></g><g class="highcharts-data-labels highcharts-series-0" transform="translate(10,10) scale(1 1)" opacity="1"><path fill="none" d="M 383.76830587309297 24.153460784205777 C 378.76830587309297 24.153460784205777 375.69143382492234 31.538097430594433 371.4607347586877 41.69197281937882 L 367.23003569245304 51.845848208163204" stroke="#50B432" stroke-width="1"></path><path fill="none" d="M 465.3963884483292 111.66176048493182 C 460.3963884483292 111.66176048493182 452.81589805118006 114.21835300990108 442.3927237550999 117.73366773173385 L 431.96954945901973 121.24898245356661" stroke="#ED561B" stroke-width="1"></path><path fill="none" d="M 444.1114148153333 244.85124840542937 C 439.1114148153333 244.85124840542937 432.70526779103903 240.0594553899574 423.89681563263446 233.47073999368345 L 415.0883634742299 226.8820245974095" stroke="#DDDF00" stroke-width="1"></path><path fill="none" d="M 301.1072105204849 302.0126163348225 C 306.1072105204849 302.0126163348225 307.0392264917686 294.06709267497024 308.3207484522835 283.14199764267335 L 309.6022704127984 272.21690261037645" stroke="#24CBE5" stroke-width="1"></path><path fill="none" d="M 179.8497934397744 202.03998668672597 C 184.8497934397744 202.03998668672597 192.4718738017179 199.61019431780315 202.95223429939017 196.26922981053428 L 213.43259479706245 192.92826530326542" stroke="#64E572" stroke-width="1"></path><path fill="none" d="M 232.1201898019825 41.16824832113281 C 237.1201898019825 41.16824832113281 241.8583862267007 47.61413806893238 248.37340631068824 56.47723647215678 L 254.88842639467578 65.34033487538119" stroke="#FF9655" stroke-width="1"></path><g style="cursor:pointer;" transform="translate(389,14)"><text x="5" style="font-size:10px;font-weight:bold;font-family:'arial', sans-serif;color:#000;text-shadow:none;fill:#000;text-rendering:geometricprecision;" y="15"><tspan>Enjoyment: 71</tspan></text></g><g style="cursor:pointer;" transform="translate(470,102)"><text x="5" style="font-size:10px;font-weight:bold;font-family:'arial', sans-serif;color:#000;text-shadow:none;fill:#000;text-rendering:geometricprecision;" y="15"><tspan>Accomplishment: 82</tspan></text></g><g style="cursor:pointer;" transform="translate(449,235)"><text x="5" style="font-size:10px;font-weight:bold;font-family:'arial', sans-serif;color:#000;text-shadow:none;fill:#000;text-rendering:geometricprecision;" y="15"><tspan>Increase Strength: 92</tspan></text></g><g style="cursor:pointer;" transform="translate(166,292)"><text x="5" style="font-size:10px;font-weight:bold;font-family:'arial', sans-serif;color:#000;text-shadow:none;fill:#000;text-rendering:geometricprecision;" y="15"><tspan>Maintain/Lose Weight: 96</tspan></text></g><g style="cursor:pointer;" transform="translate(0,192)"><text x="5" style="font-size:10px;font-weight:bold;font-family:'arial', sans-serif;color:#000;text-shadow:none;fill:#000;text-rendering:geometricprecision;" y="15"><tspan>Maintain/Improve Appearance: 110</tspan></text></g><g style="cursor:pointer;" transform="translate(79,31)"><text x="5" style="font-size:10px;font-weight:bold;font-family:'arial', sans-serif;color:#000;text-shadow:none;fill:#000;text-rendering:geometricprecision;" y="15"><tspan>Maintain/Improve Health: 114</tspan></text></g></g><g class="highcharts-legend" transform="translate(26,338)"><g><g><g class="highcharts-legend-item" transform="translate(8,3)"><text x="21" style="color:#333;font-size:9pt;font-weight:normal;cursor:pointer;font-family:'lucida grande','lucida sans unicode',arial,helvetica,sans-serif;text-transform:none;fill:#333;" text-anchor="start" y="15">Enjoyment</text><rect x="0" y="4" width="16" height="12" fill="#50B432"></rect></g><g class="highcharts-legend-item" transform="translate(110.578125,3)"><text x="21" y="15" style="color:#333;font-size:9pt;font-weight:normal;cursor:pointer;font-family:'lucida grande','lucida sans unicode',arial,helvetica,sans-serif;text-transform:none;fill:#333;" text-anchor="start">Accomplishment</text><rect x="0" y="4" width="16" height="12" fill="#ED561B"></rect></g><g class="highcharts-legend-item" transform="translate(250.109375,3)"><text x="21" y="15" style="color:#333;font-size:9pt;font-weight:normal;cursor:pointer;font-family:'lucida grande','lucida sans unicode',arial,helvetica,sans-serif;text-transform:none;fill:#333;" text-anchor="start"><tspan>Increase Strength</tspan></text><rect x="0" y="4" width="16" height="12" fill="#DDDF00"></rect></g><g class="highcharts-legend-item" transform="translate(392.390625,3)"><text x="21" y="15" style="color:#333;font-size:9pt;font-weight:normal;cursor:pointer;font-family:'lucida grande','lucida sans unicode',arial,helvetica,sans-serif;text-transform:none;fill:#333;" text-anchor="start"><tspan>Maintain/Lose Weight</tspan></text><rect x="0" y="4" width="16" height="12" fill="#24CBE5"></rect></g><g class="highcharts-legend-item" transform="translate(8,21)"><text x="21" y="15" style="color:#333;font-size:9pt;font-weight:normal;cursor:pointer;font-family:'lucida grande','lucida sans unicode',arial,helvetica,sans-serif;text-transform:none;fill:#333;" text-anchor="start"><tspan>Maintain/Improve Appearance</tspan></text><rect x="0" y="4" width="16" height="12" fill="#64E572"></rect></g><g class="highcharts-legend-item" transform="translate(225.21875,21)"><text x="21" y="15" style="color:#333;font-size:9pt;font-weight:normal;cursor:pointer;font-family:'lucida grande','lucida sans unicode',arial,helvetica,sans-serif;text-transform:none;fill:#333;" text-anchor="start"><tspan>Maintain/Improve Health</tspan></text><rect x="0" y="4" width="16" height="12" fill="#FF9655"></rect></g></g></g></g><g class="highcharts-tooltip" display="none" style="cursor:default;padding:0;pointer-events:none;white-space:nowrap;" transform="translate(0,0)"><path fill="rgb(0, 0, 0)" fill-opacity=" 0.75" d="M 3.5 0.5 L 13.5 0.5 C 16.5 0.5 16.5 0.5 16.5 3.5 L 16.5 13.5 C 16.5 16.5 16.5 16.5 13.5 16.5 L 3.5 16.5 C 0.5 16.5 0.5 16.5 0.5 13.5 L 0.5 3.5 C 0.5 0.5 0.5 0.5 3.5 0.5"></path><text x="8" style="font-size:12px;color:#000000;fill:#000000;" y="20"></text></g><text x="590" text-anchor="end" style="cursor:pointer;color:#666;font-size:9px;fill:#666;" y="395">meta-chart.com</text></svg>