<?xml version="1.0" standalone="no"?><!DOCTYPE svg PUBLIC "-//W3C//DTD SVG 1.1//EN" "http://www.w3.org/Graphics/SVG/1.1/DTD/svg11.dtd"><svg xmlns:xlink="http://www.w3.org/1999/xlink" version="1.1" style="font-family:dosis, sans-serif;font-size:12px;" xmlns="http://www.w3.org/2000/svg" width="600" height="400"><desc>Created with Highcharts 4.2.7</desc><defs><clipPath id="highcharts-163"><rect x="0" y="0" width="548" height="313"></rect></clipPath></defs><rect x="42" y="10" width="548" height="313" fill="rgb(255, 255, 255)" fill-opacity=" .9"></rect><path fill="rgb(255, 255, 255)" fill-opacity=" .5" d="M 42 323.5 L 590 323.5 590 260.5 42 260.5"></path><path fill="rgb(255, 255, 255)" fill-opacity=" .5" d="M 42 198.5 L 590 198.5 590 135.5 42 135.5"></path><path fill="rgb(255, 255, 255)" fill-opacity=" .5" d="M 42 73.5 L 590 73.5 590 10.5 42 10.5"></path><g class="highcharts-grid"><path fill="none" d="M 132.5 10 L 132.5 323" stroke="#C0C0C0" stroke-width="1" opacity="1"></path><path fill="none" d="M 224.5 10 L 224.5 323" stroke="#C0C0C0" stroke-width="1" opacity="1"></path><path fill="none" d="M 315.5 10 L 315.5 323" stroke="#C0C0C0" stroke-width="1" opacity="1"></path><path fill="none" d="M 406.5 10 L 406.5 323" stroke="#C0C0C0" stroke-width="1" opacity="1"></path><path fill="none" d="M 498.5 10 L 498.5 323" stroke="#C0C0C0" stroke-width="1" opacity="1"></path><path fill="none" d="M 590.5 10 L 590.5 323" stroke="#C0C0C0" stroke-width="1" opacity="1"></path><path fill="none" d="M 41.5 10 L 41.5 323" stroke="#C0C0C0" stroke-width="1" opacity="1"></path></g><g class="highcharts-grid"><path fill="none" d="M 42 323.5 L 590 323.5" stroke="#E0E0E0" stroke-width="1" opacity="1"></path><path fill="none" d="M 42 310.5 L 590 310.5" stroke="#E0E0E0" stroke-width="1" opacity="1"></path><path fill="none" d="M 42 298.5 L 590 298.5" stroke="#E0E0E0" stroke-width="1" opacity="1"></path><path fill="none" d="M 42 285.5 L 590 285.5" stroke="#E0E0E0" stroke-width="1" opacity="1"></path><path fill="none" d="M 42 273.5 L 590 273.5" stroke="#E0E0E0" stroke-width="1" opacity="1"></path><path fill="none" d="M 42 260.5 L 590 260.5" stroke="#E0E0E0" stroke-width="1" opacity="1"></path><path fill="none" d="M 42 248.5 L 590 248.5" stroke="#E0E0E0" stroke-width="1" opacity="1"></path><path fill="none" d="M 42 235.5 L 590 235.5" stroke="#E0E0E0" stroke-width="1" opacity="1"></path><path fill="none" d="M 42 223.5 L 590 223.5" stroke="#E0E0E0" stroke-width="1" opacity="1"></path><path fill="none" d="M 42 210.5 L 590 210.5" stroke="#E0E0E0" stroke-width="1" opacity="1"></path><path fill="none" d="M 42 198.5 L 590 198.5" stroke="#E0E0E0" stroke-width="1" opacity="1"></path><path fill="none" d="M 42 185.5 L 590 185.5" stroke="#E0E0E0" stroke-width="1" opacity="1"></path><path fill="none" d="M 42 173.5 L 590 173.5" stroke="#E0E0E0" stroke-width="1" opacity="1"></path><path fill="none" d="M 42 160.5 L 590 160.5" stroke="#E0E0E0" stroke-width="1" opacity="1"></path><path fill="none" d="M 42 148.5 L 590 148.5" stroke="#E0E0E0" stroke-width="1" opacity="1"></path><path fill="none" d="M 42 135.5 L 590 135.5" stroke="#E0E0E0" stroke-width="1" opacity="1"></path><path fill="none" d="M 42 123.5 L 590 123.5" stroke="#E0E0E0" stroke-width="1" opacity="1"></path><path fill="none" d="M 42 110.5 L 590 110.5" stroke="#E0E0E0" stroke-width="1" opacity="1"></path><path fill="none" d="M 42 98.5 L 590 98.5" stroke="#E0E0E0" stroke-width="1" opacity="1"></path><path fill="none" d="M 42 85.5 L 590 85.5" stroke="#E0E0E0" stroke-width="1" opacity="1"></path><path fill="none" d="M 42 73.5 L 590 73.5" stroke="#E0E0E0" stroke-width="1" opacity="1"></path><path fill="none" d="M 42 60.5 L 590 60.5" stroke="#E0E0E0" stroke-width="1" opacity="1"></path><path fill="none" d="M 42 48.5 L 590 48.5" stroke="#E0E0E0" stroke-width="1" opacity="1"></path><path fill="none" d="M 42 35.5 L 590 35.5" stroke="#E0E0E0" stroke-width="1" opacity="1"></path><path fill="none" d="M 42 23.5 L 590 23.5" stroke="#E0E0E0" stroke-width="1" opacity="1"></path><path fill="none" d="M 42 9.5 L 590 9.5" stroke="#E0E0E0" stroke-width="1" opacity="1"></path><path fill="none" d="M 42 323.5 L 590 323.5" stroke="#C0C0C0" stroke-width="1" opacity="1"></path><path fill="none" d="M 42 260.5 L 590 260.5" stroke="#C0C0C0" stroke-width="1" opacity="1"></path><path fill="none" d="M 42 198.5 L 590 198.5" stroke="#C0C0C0" stroke-width="1" opacity="1"></path><path fill="none" d="M 42 135.5 L 590 135.5" stroke="#C0C0C0" stroke-width="1" opacity="1"></path><path fill="none" d="M 42 73.5 L 590 73.5" stroke="#C0C0C0" stroke-width="1" opacity="1"></path><path fill="none" d="M 42 9.5 L 590 9.5" stroke="#C0C0C0" stroke-width="1" opacity="1"></path></g><g class="highcharts-axis"><path fill="none" d="M 132.5 323 L 132.5 333" stroke="#C0D0E0" stroke-width="1" opacity="1"></path><path fill="none" d="M 224.5 323 L 224.5 333" stroke="#C0D0E0" stroke-width="1" opacity="1"></path><path fill="none" d="M 315.5 323 L 315.5 333" stroke="#C0D0E0" stroke-width="1" opacity="1"></path><path fill="none" d="M 406.5 323 L 406.5 333" stroke="#C0D0E0" stroke-width="1" opacity="1"></path><path fill="none" d="M 498.5 323 L 498.5 333" stroke="#C0D0E0" stroke-width="1" opacity="1"></path><path fill="none" d="M 590.5 323 L 590.5 333" stroke="#C0D0E0" stroke-width="1" opacity="1"></path><path fill="none" d="M 41.5 323 L 41.5 333" stroke="#C0D0E0" stroke-width="1" opacity="1"></path><path fill="none" d="M 42 323.5 L 590 323.5" stroke="#C0D0E0" stroke-width="1"></path></g><g class="highcharts-axis"><path fill="none" d="M 41.5 10 L 41.5 323"></path></g><g class="highcharts-series-group"><g class="highcharts-series highcharts-series-0" transform="translate(42,10) scale(1 1)" clip-path="url(#highcharts-163)"><rect x="23.5" y="63.5" width="44" height="250" stroke="#FFFFFF" stroke-width="1" fill="#50B432" rx="0" ry="0"></rect><rect x="114.5" y="93.5" width="44" height="220" stroke="#FFFFFF" stroke-width="1" fill="#ED561B" rx="0" ry="0"></rect><rect x="205.5" y="150.5" width="44" height="163" stroke="#FFFFFF" stroke-width="1" fill="#DDDF00" rx="0" ry="0"></rect><rect x="297.5" y="195.5" width="44" height="118" stroke="#FFFFFF" stroke-width="1" fill="#24CBE5" rx="0" ry="0"></rect><rect x="388.5" y="280.5" width="44" height="33" stroke="#FFFFFF" stroke-width="1" fill="#64E572" rx="0" ry="0"></rect><rect x="479.5" y="288.5" width="44" height="25" stroke="#FFFFFF" stroke-width="1" fill="#FF9655" rx="0" ry="0"></rect></g><g class="highcharts-markers highcharts-series-0" transform="translate(42,10) scale(1 1)" clip-path="none"></g><g class="highcharts-series highcharts-series-1" transform="translate(42,10) scale(1 1)" clip-path="url(#highcharts-163)"></g><g class="highcharts-markers highcharts-series-1" transform="translate(42,10) scale(1 1)" clip-path="none"></g></g><g class="highcharts-data-labels highcharts-series-0" transform="translate(42,10) scale(1 1)" opacity="1"><g style="cursor:pointer;" transform="translate(32,43)"><text x="5" style="font-size:10px;font-weight:bold;font-family:'arial', sans-serif;color:#333;text-shadow:none;fill:#333;text-rendering:geometricprecision;" y="15"><tspan>100</tspan></text></g><g style="cursor:pointer;" transform="translate(126,73)"><text x="5" style="font-size:10px;font-weight:bold;font-family:'arial', sans-serif;color:#333;text-shadow:none;fill:#333;text-rendering:geometricprecision;" y="15"><tspan>88</tspan></text></g><g style="cursor:pointer;" transform="translate(217,130)"><text x="5" style="font-size:10px;font-weight:bold;font-family:'arial', sans-serif;color:#333;text-shadow:none;fill:#333;text-rendering:geometricprecision;" y="15"><tspan>65</tspan></text></g><g style="cursor:pointer;" transform="translate(309,175)"><text x="5" style="font-size:10px;font-weight:bold;font-family:'arial', sans-serif;color:#333;text-shadow:none;fill:#333;text-rendering:geometricprecision;" y="15"><tspan>47</tspan></text></g><g style="cursor:pointer;" transform="translate(400,260)"><text x="5" style="font-size:10px;font-weight:bold;font-family:'arial', sans-serif;color:#333;text-shadow:none;fill:#333;text-rendering:geometricprecision;" y="15"><tspan>13</tspan></text></g><g style="cursor:pointer;" transform="translate(491,268)"><text x="5" style="font-size:10px;font-weight:bold;font-family:'arial', sans-serif;color:#333;text-shadow:none;fill:#333;text-rendering:geometricprecision;" y="15"><tspan>10</tspan></text></g></g><g class="highcharts-data-labels highcharts-series-1" transform="translate(42,10) scale(1 1)" opacity="1"></g><g class="highcharts-legend" transform="translate(263,358)"><g><g><g class="highcharts-legend-item" transform="translate(8,3)"><text x="21" style="color:#333;font-size:13px;font-weight:bold;cursor:pointer;font-family:dosis, sans-serif;text-transform:none;fill:#333;" text-anchor="start" y="16"><tspan>Series 1</tspan></text><rect x="0" y="4" width="16" height="13" fill="#CCC"></rect></g></g></g></g><g class="highcharts-axis-labels highcharts-xaxis-labels"><text x="87.66666666666666" style="color:#606060;cursor:default;font-size:12px;font-family:dosis, sans-serif;text-transform:none;font-weight:normal;fill:#606060;" text-anchor="middle" transform="translate(0,0)" y="343" opacity="1">Endurance</text><text x="179" style="color:#606060;cursor:default;font-size:12px;font-family:dosis, sans-serif;text-transform:none;font-weight:normal;fill:#606060;" text-anchor="middle" transform="translate(0,0)" y="343" opacity="1">Strength</text><text x="270.3333333333333" style="color:#606060;cursor:default;font-size:12px;font-family:dosis, sans-serif;text-transform:none;font-weight:normal;fill:#606060;" text-anchor="middle" transform="translate(0,0)" y="343" opacity="1">Floor</text><text x="361.66666666666663" style="color:#606060;cursor:default;font-size:12px;font-family:dosis, sans-serif;text-transform:none;font-weight:normal;fill:#606060;" text-anchor="middle" transform="translate(0,0)" y="343" opacity="1">Flexibility</text><text x="453" style="color:#606060;cursor:default;font-size:12px;font-family:dosis, sans-serif;text-transform:none;font-weight:normal;fill:#606060;" text-anchor="middle" transform="translate(0,0)" y="343" opacity="1">Balance</text><text x="544.3333333333334" style="color:#606060;cursor:default;font-size:12px;font-family:dosis, sans-serif;text-transform:none;font-weight:normal;fill:#606060;" text-anchor="middle" transform="translate(0,0)" y="343" opacity="1">Other</text></g><g class="highcharts-axis-labels highcharts-yaxis-labels"><text x="27" style="color:#606060;cursor:default;font-size:12px;font-family:dosis, sans-serif;text-transform:none;font-weight:normal;fill:#606060;width:188px;text-overflow:clip;" text-anchor="end" transform="translate(0,0)" y="328" opacity="1"><tspan>0</tspan></text><text x="27" style="color:#606060;cursor:default;font-size:12px;font-family:dosis, sans-serif;text-transform:none;font-weight:normal;fill:#606060;width:188px;text-overflow:clip;" text-anchor="end" transform="translate(0,0)" y="265" opacity="1"><tspan>25</tspan></text><text x="27" style="color:#606060;cursor:default;font-size:12px;font-family:dosis, sans-serif;text-transform:none;font-weight:normal;fill:#606060;width:188px;text-overflow:clip;" text-anchor="end" transform="translate(0,0)" y="202" opacity="1"><tspan>50</tspan></text><text x="27" style="color:#606060;cursor:default;font-size:12px;font-family:dosis, sans-serif;text-transform:none;font-weight:normal;fill:#606060;width:188px;text-overflow:clip;" text-anchor="end" transform="translate(0,0)" y="140" opacity="1"><tspan>75</tspan></text><text x="27" style="color:#606060;cursor:default;font-size:12px;font-family:dosis, sans-serif;text-transform:none;font-weight:normal;fill:#606060;width:188px;text-overflow:clip;" text-anchor="end" transform="translate(0,0)" y="77" opacity="1"><tspan>100</tspan></text><text x="27" style="color:#606060;cursor:default;font-size:12px;font-family:dosis, sans-serif;text-transform:none;font-weight:normal;fill:#606060;width:188px;text-overflow:clip;" text-anchor="end" transform="translate(0,0)" y="15" opacity="1"><tspan>125</tspan></text></g><g class="highcharts-tooltip" display="none" style="cursor:default;padding:0;pointer-events:none;white-space:nowrap;" transform="translate(0,0)"><path fill="rgb(219,219,216)" fill-opacity="0.8" d="M 3 0 L 13 0 C 16 0 16 0 16 3 L 16 13 C 16 16 16 16 13 16 L 3 16 C 0 16 0 16 0 13 L 0 3 C 0 0 0 0 3 0"></path><text x="8" style="font-size:12px;color:#333;fill:#333;" y="20"></text></g><text x="590" text-anchor="end" style="cursor:pointer;color:#666;font-size:9px;fill:#666;" y="395">meta-chart.com</text></svg>