<?xml version="1.0" encoding="iso-8859-1"?>
<!-- Generator: Adobe Illustrator 19.0.0, SVG Export Plug-In . SVG Version: 6.00 Build 0)  -->
<svg version="1.1" id="Capa_1" xmlns="http://www.w3.org/2000/svg" xmlns:xlink="http://www.w3.org/1999/xlink" x="0px" y="0px"
	 viewBox="0 0 512 512" style="enable-background:new 0 0 512 512;" xml:space="preserve">
<g>
	<g>
		<path d="M328.852,18.039C319.516,6.406,306.524,0,292.271,0c-20.871,0-35.059,10.84-42.565,18.644
			C242.199,10.839,228.011,0,207.141,0c-14.254,0-27.245,6.406-36.582,18.039c-8.695,10.834-13.484,25.231-13.484,40.539
			c0,22.704,11.389,66.926,87.666,108.006c1.554,0.836,3.259,1.255,4.964,1.255s3.412-0.419,4.967-1.256
			c76.275-41.079,87.664-85.301,87.664-108.005C342.336,43.27,337.547,28.873,328.852,18.039z M249.706,152.21
			c-50.087-27.482-77.63-60.674-77.63-93.632C172.075,33.734,187.15,15,207.141,15c20.517,0,32.441,14.236,35.607,18.599
			c0,0.001,0,0.001,0,0.001c1.613,2.223,4.213,3.549,6.957,3.549s5.344-1.326,6.958-3.55C259.829,29.236,271.753,15,292.271,15
			c19.99,0,35.065,18.734,35.065,43.578C327.336,91.536,299.791,124.729,249.706,152.21z"/>
	</g>
</g>
<g>
	<g>
		<path d="M463.914,352.805c-0.559-1.624-1.672-3.067-3.266-4.01l-20.252-11.983c5.68-2.607,10.981-5.995,15.758-10.082
			c1.13,4.604,4.914,8.146,9.823,8.838c5.879,0.831,11.352-2.704,13.012-8.403c6.969-23.925,15.261-59.49,15.187-93.057
			c-0.009-4.137-3.365-7.483-7.5-7.483c-0.006,0-0.012,0-0.017,0c-4.142,0.009-7.493,3.374-7.483,7.517
			c0.05,22.821-4.042,46.819-8.832,67.045c-2.289-58.119-12.55-66.413-16.178-69.346c-16.896-13.652-36.134-38.159-36.327-38.404
			c-1.77-2.264-4.678-3.318-7.485-2.713c-1.475,0.317-36.26,8.214-48.933,46.944c-4.685,14.315-6.446,41.219-6.963,66.555
			c-9.805-37.371-19.585-95.7,3.356-127.063c11.23-15.352,28.932-22.814,54.116-22.814c35.597,0,56.58,16.173,64.147,49.442
			c0.918,4.039,4.933,6.566,8.977,5.65c4.039-0.919,6.568-4.938,5.649-8.977c-9.094-39.982-36.333-61.116-78.773-61.116
			c-29.886,0-52.167,9.743-66.223,28.959c-30.789,42.089-12.923,119.069,0.467,161.211c1.589,5,6.144,8.251,11.233,8.251
			c0.618,0,1.244-0.048,1.874-0.146c5.146-0.807,9.027-4.765,9.839-9.745c4.173,3.384,8.687,6.238,13.46,8.52v0.335l-20.39,12.065
			c-1.595,0.944-2.708,2.388-3.267,4.013c-21.321,10.349-37.281,29.064-44.233,51.427c-9.716-8.231-21.477-13.416-34.07-15.053
			v-6.483c11.314-6.195,20.231-16.471,24.489-28.991c9.373-1.705,14.324-8.465,16.352-13.793
			c10.343-8.474,8.933-24.373,5.795-34.537c3.691-11.253,3.369-21.764-0.967-31.278c-6.346-13.928-19.585-21.35-25.267-24.001
			c-10.825-16.529-38.552-14.4-45.023-13.656c-6.47-0.745-34.208-2.872-45.033,13.656c-4.544,2.122-13.918,7.308-20.736,16.425
			c0.33-1.538,0.511-3.118,0.499-4.729l-0.09-12.333c-0.067-8.683-5.286-16.128-12.725-19.494
			c4.399-10.231,3.273-19.346,1.476-33.706c-0.351-2.804-0.734-5.865-1.117-9.241c-1.821-16.11-13.472-28.137-22.926-35.391
			c-3.614-2.771-6.941-6.229-10.173-10.574c-15.111-20.299-39.053-20.116-49.279-20.021l-0.545,0.004
			c-9.818,0.073-31.788,6.796-41.137,26.707c-12.464,3.333-22.572,11.588-29.406,24.08c-8.88,16.233-10.745,37.84-6.861,47.083
			c0.434,1.032,1.339,3.909,2.513,11.524c-6.951,3.58-11.651,10.799-11.719,19.032l-0.09,12.327
			c-0.044,5.767,2.16,11.204,6.208,15.313c4.045,4.105,9.449,6.392,15.218,6.436l3.344,0.024
			c4.389,21.424,19.019,39.188,38.49,47.962v5.202l-20.392,12.066c-1.566,0.927-2.671,2.335-3.24,3.925
			c-3.915,1.89-7.694,4.074-11.279,6.543c-3.412,2.349-4.274,7.019-1.925,10.431c1.455,2.113,3.799,3.248,6.185,3.248
			c1.466,0,2.947-0.43,4.246-1.323c2.557-1.76,5.241-3.326,8.004-4.731l18.375,31.057c1.064,1.799,2.832,3.072,4.875,3.513
			c0.524,0.112,1.053,0.168,1.58,0.168c1.529,0,3.037-0.468,4.309-1.361l0.677-0.475l1.102,5.155l-5.643,60.105
			c-0.171,1.83,0.334,3.658,1.422,5.14l14.5,19.75c1.413,1.925,3.658,3.062,6.045,3.062c2.387,0,4.633-1.137,6.045-3.062l14.5-19.75
			c1.088-1.481,1.593-3.31,1.422-5.14l-5.694-60.658l1.005-4.702l0.819,0.575c1.272,0.894,2.78,1.361,4.309,1.361
			c0.527,0,1.057-0.056,1.58-0.168c2.043-0.44,3.811-1.714,4.875-3.513l18.306-30.942c19.658,10.079,33.537,28.895,37.239,50.763
			c-7.369,10.868-11.346,23.677-11.346,37.074V497H15v-67.39c0-13.23,3.688-26.118,10.666-37.27c2.197-3.512,1.132-8.14-2.38-10.337
			c-3.511-2.195-8.139-1.132-10.336,2.38C4.478,397.924,0,413.563,0,429.61v74.89c0,4.143,3.358,7.5,7.5,7.5h497
			c4.142,0,7.5-3.357,7.5-7.5v-74.89C512,396.539,493.314,367.018,463.914,352.805z M446.554,357.886l-15.053,25.442l-9.72-6.823
			l16.158-23.717L446.554,357.886z M411.419,365.074l-13.839-20.313v-3.275c4.666,0.996,9.466,1.523,14.35,1.523
			c4.532,0,8.991-0.448,13.33-1.305v3.054L411.419,365.074z M374.365,312.447c-1.79-1.788-3.447-3.706-4.952-5.719
			c0.54-30.995,2.709-53.53,6.265-64.396c7.668-23.436,25.412-32.563,33.593-35.616c6.444,7.874,21.375,25.404,35.468,36.792
			c1.002,0.81,9.041,8.948,10.745,61.766c-9.961,14.267-26.069,22.736-43.553,22.736C397.742,328.01,384.4,322.483,374.365,312.447z
			 M384.898,352.788l16.159,23.717l-9.721,6.823l-15.053-25.442L384.898,352.788z M256.12,374.1h-0.33
			c-15.964,0-30.137-10.396-35.147-25.231c1.021-1.676,1.578-3.597,1.578-5.611V331.32c4.708-2.182,10.967-6.51,14.829-14.869
			c4.826,1.945,11.352,3.749,18.951,3.749c7.594,0,14.116-1.804,18.941-3.748c3.861,8.358,10.12,12.687,14.829,14.868v11.938
			c0,1.829,0.451,3.587,1.298,5.15C286.221,363.37,272.061,373.972,256.12,374.1z M246.38,388.225
			c3.066,0.57,6.212,0.875,9.41,0.875h0.39c3.21-0.026,6.365-0.36,9.44-0.962v8.843c0,5.304-4.315,9.619-9.62,9.619
			s-9.62-4.315-9.62-9.619V388.225z M199.32,280.402c5.373-11.915,19.382-17.322,19.496-17.366c1.805-0.665,3.286-2,4.135-3.727
			c4.577-9.309,25.188-8.794,32.036-7.878c0.666,0.091,1.352,0.09,2.017,0.001c6.856-0.916,27.459-1.433,32.037,7.877
			c0.85,1.727,2.33,3.062,4.136,3.728c0.139,0.051,14.081,5.467,19.464,17.282c2.949,6.472,2.837,13.991-0.333,22.352
			c-0.647,1.706-0.65,3.589-0.008,5.296c1.232,3.281,4.909,17.308-1.103,20.872c-1.865,1.104-3.16,2.963-3.552,5.095
			c-0.067,0.364-0.578,2.698-2.874,4.105V326c0-3.749-2.535-6.886-6.242-7.396c-1.256-0.264-9.71-2.466-11.671-14.174
			c-0.43-2.566-2.16-4.728-4.571-5.708c-2.412-0.981-5.158-0.64-7.257,0.896c-0.076,0.056-7.932,5.581-19.029,5.581
			c-11.068,0-19-5.554-19.039-5.581c-2.099-1.538-4.846-1.878-7.257-0.896c-2.411,0.98-4.141,3.142-4.571,5.708
			c-1.961,11.708-10.414,13.91-11.671,14.174c-3.707,0.51-6.242,3.646-6.242,7.396v12.032c-1.925-1.195-2.63-3.092-2.882-4.153
			c-0.337-2.217-1.609-3.894-3.544-5.04c-6.004-3.56-2.385-17.381-1.094-20.869c0.643-1.708,0.64-3.592-0.007-5.299
			C196.537,294.347,196.411,286.854,199.32,280.402z M174.037,246.488c0.028-0.368,0.059-0.711,0.089-1.061
			c0.934,1.127,1.502,2.57,1.514,4.147l0.09,12.333c0.014,1.759-0.658,3.416-1.892,4.669c-1.235,1.253-2.885,1.95-4.646,1.964
			l-2.439,0.019l-0.085-11.519C170.734,255.141,173.686,251.172,174.037,246.488z M30.187,268.539
			c-1.76-0.013-3.41-0.71-4.645-1.963c-1.234-1.253-1.906-2.91-1.892-4.672l0.074-10.114c1.575,3.416,4.584,5.97,8.241,6.948
			l0.07,9.814L30.187,268.539z M37.324,243.87c-0.014,0.004-0.029,0.007-0.043,0.011c-2.267-21.219-4.221-27.738-5.506-30.79
			c-1.57-3.732-1.341-20.293,6.193-34.067c5.385-9.843,13.114-15.702,22.971-17.414c2.672-0.465,4.886-2.335,5.789-4.893
			c5.422-15.354,22.003-20.63,28.735-20.68l0.556-0.005c0.714-0.006,1.473-0.012,2.275-0.012c9.623,0,25.096,0.889,34.848,13.988
			c4.071,5.474,8.35,9.897,13.079,13.522c5.849,4.488,15.855,13.726,17.15,25.177c0.391,3.441,0.78,6.56,1.138,9.415
			c1.804,14.416,2.55,20.384-1.162,27.616c0,0.001-0.001,0.002-0.001,0.003c-1.106,2.156-2.002,4.886-2.714,8.193
			c-0.019,0.088-0.04,0.175-0.056,0.264c-0.554,2.635-0.995,5.621-1.316,9.029c-3.518-0.29-6.354-3.044-6.725-6.65
			c-3.152-30.729-11.604-47.151-25.123-48.813c-8.103-0.992-14.966-3.334-22.232-5.813c-8.414-2.87-17.113-5.839-27.446-6.37
			c-6.749-0.365-16.352,7.418-20.775,21.041c-1.829,5.632-4.799,11.343-9.078,17.456c-3.365,4.806-5.021,11.889-5.368,22.966
			C42.41,240.298,40.258,242.986,37.324,243.87z M47.05,270.477l-0.105-14.634c6.153-3.81,10.315-10.527,10.56-18.326
			c0.316-10.047,1.805-13.605,2.665-14.834c5.145-7.351,8.761-14.358,11.056-21.426c2.136-6.577,5.485-9.686,6.918-10.618
			c7.772,0.591,14.787,2.984,22.193,5.511c7.671,2.618,15.604,5.324,25.25,6.506c3.285,0.403,9.456,10.386,12.027,35.456
			c0.885,8.62,6.465,15.623,14.051,18.598l0.096,12.987c0.106,13.986-5.241,27.175-15.056,37.138
			c-5.023,5.099-10.913,9.031-17.33,11.677c-0.095,0.037-0.19,0.071-0.283,0.112c-6.042,2.45-12.544,3.769-19.241,3.817h-0.46
			C70.739,322.44,47.259,299.129,47.05,270.477z M100.747,365.073l-13.837-20.31v-8.509c4.049,0.768,8.217,1.186,12.48,1.186h0.515
			c5.003-0.036,9.913-0.633,14.675-1.724v9.053L100.747,365.073z M104.668,390.425L103.264,397h-5.197l-1.405-6.574l0.416-0.292
			l3.587-2.519L104.668,390.425z M80.664,383.328l-15.053-25.442l8.615-5.098l16.159,23.717L80.664,383.328z M100.75,472.827
			l-6.766-9.216L98.829,412h3.842l4.845,51.611L100.75,472.827z M120.83,383.328l-9.72-6.823l16.158-23.717l8.615,5.098
			L120.83,383.328z M153.273,352.907c-0.547-1.665-1.671-3.149-3.298-4.112l-20.396-12.068v-6.398
			c6.521-3.273,12.538-7.617,17.809-12.967c9.291-9.431,15.456-21.112,18.019-33.791l3.9-0.03
			c5.747-0.044,11.134-2.318,15.175-6.399c-3.122,8.698-3.042,18.168,0.261,28.236c-3.142,10.164-4.557,26.063,5.786,34.538
			c1.993,5.237,6.822,11.843,15.885,13.688c4.296,12.756,13.405,23.174,24.966,29.35v6.23c-12.592,1.637-24.353,6.822-34.069,15.052
			C190.382,381.943,174.495,363.27,153.273,352.907z M497,497H338.19v-1c0-4.143-3.358-7.5-7.5-7.5c-4.142,0-7.5,3.357-7.5,7.5v1
			H188.81v-42.16c0-25.486,19.053-46.951,43.649-50.652C235.548,414.257,244.931,421.6,256,421.6
			c11.069,0,20.452-7.342,23.541-17.412c24.595,3.701,43.649,25.166,43.649,50.652v9.035c0,4.143,3.358,7.5,7.5,7.5
			c4.142,0,7.5-3.357,7.5-7.5v-9.035c0-13.397-3.978-26.206-11.346-37.074c3.713-21.919,17.64-40.761,37.365-50.829l18.345,31.007
			c1.064,1.799,2.832,3.072,4.875,3.513c0.524,0.112,1.053,0.168,1.58,0.168c1.529,0,3.037-0.468,4.309-1.361l18.101-12.706
			l18.1,12.706c1.272,0.894,2.78,1.361,4.309,1.361c0.527,0,1.057-0.056,1.58-0.168c2.043-0.44,3.811-1.714,4.875-3.513
			l18.348-31.012C482.131,378.875,497,402.829,497,429.61V497z"/>
	</g>
</g>
<g>
	<g>
		<circle cx="411.93" cy="424" r="7.5"/>
	</g>
</g>
<g>
	<g>
		<circle cx="411.93" cy="457.76" r="7.5"/>
	</g>
</g>
<g>
	<g>
		<circle cx="256.72" cy="447.1" r="7.5"/>
	</g>
</g>
<g>
	<g>
		<circle cx="256.72" cy="478" r="7.5"/>
	</g>
</g>
<g>
</g>
<g>
</g>
<g>
</g>
<g>
</g>
<g>
</g>
<g>
</g>
<g>
</g>
<g>
</g>
<g>
</g>
<g>
</g>
<g>
</g>
<g>
</g>
<g>
</g>
<g>
</g>
<g>
</g>
</svg>
