<?xml version="1.0" encoding="iso-8859-1"?>
<!-- Generator: Adobe Illustrator 19.0.0, SVG Export Plug-In . SVG Version: 6.00 Build 0)  -->
<svg version="1.1" id="Capa_1" xmlns="http://www.w3.org/2000/svg" xmlns:xlink="http://www.w3.org/1999/xlink" x="0px" y="0px"
	 viewBox="0 0 512 512" style="enable-background:new 0 0 512 512;" xml:space="preserve">
<g>
	<g>
		<path d="M188.5,63.793c-28.949,0-52.5,23.551-52.5,52.5c0,28.949,23.551,52.5,52.5,52.5c28.949,0,52.5-23.551,52.5-52.5
			C241,87.344,217.449,63.793,188.5,63.793z M188.5,153.793c-20.678,0-37.5-16.822-37.5-37.5c0-20.678,16.822-37.5,37.5-37.5
			s37.5,16.822,37.5,37.5C226,136.971,209.178,153.793,188.5,153.793z"/>
	</g>
</g>
<g>
	<g>
		<path d="M286.872,404.177L226,383.887v-60.902c9.27-9.472,15-22.423,15-36.692v-75c0-15.164-12.336-27.5-27.5-27.5h-50
			c-15.164,0-27.5,12.336-27.5,27.5v27.008c-17.313-1.645-34.175-9.082-47.405-22.311c-2.929-2.929-7.678-2.929-10.606,0
			c-2.929,2.929-2.929,7.678,0,10.606c18.033,18.033,41.72,27.049,65.407,27.049s47.375-9.017,65.407-27.049
			c2.929-2.929,2.929-7.678,0-10.606c-2.929-2.929-7.678-2.929-10.606,0C185.02,229.167,168.24,236.592,151,238.279v-26.985
			c0-6.893,5.607-12.5,12.5-12.5h50c6.893,0,12.5,5.607,12.5,12.5v67.5h-75v-2.659c0-4.142-3.358-7.5-7.5-7.5
			c-4.142,0-7.5,3.358-7.5,7.5v10.159c0,14.269,5.73,27.22,15,36.692v129.902l-24.872,8.291c-3.93,1.31-6.053,5.558-4.744,9.487
			c1.048,3.143,3.974,5.13,7.114,5.13c0.786,0,1.586-0.125,2.373-0.387l30-10c3.062-1.021,5.128-3.887,5.128-7.115V333.717
			c6.824,3.251,14.452,5.076,22.5,5.076c8.048,0,15.676-1.825,22.5-5.076v55.576c0,3.228,2.066,6.094,5.128,7.115L277,416.698
			v24.594c0,4.142,3.357,7.5,7.5,7.5s7.5-3.358,7.5-7.5v-30C292,408.065,289.935,405.198,286.872,404.177z M188.501,323.793
			c-18.11,0-33.262-12.904-36.746-30h73.491C221.762,310.889,206.611,323.793,188.501,323.793z"/>
	</g>
</g>
<g>
	<g>
		<path d="M52.5,370.793c-28.949,0-52.5,23.551-52.5,52.5c0,28.949,23.551,52.5,52.5,52.5s52.5-23.551,52.5-52.5
			C105,394.344,81.449,370.793,52.5,370.793z M52.5,460.793c-20.678,0-37.5-16.822-37.5-37.5c0-20.678,16.822-37.5,37.5-37.5
			s37.5,16.822,37.5,37.5C90,443.971,73.178,460.793,52.5,460.793z"/>
	</g>
</g>
<g>
	<g>
		<path d="M462.87,41.458c-4.73-3.437-10.314-5.253-16.147-5.253c-8.783,0-17.106,4.238-22.265,11.337
			c-3.798,5.228-5.475,11.358-5.207,17.361c-3.472-0.725-7.067-1.111-10.751-1.111s-7.279,0.386-10.751,1.111
			c0.268-6.003-1.409-12.133-5.207-17.362c-5.158-7.099-13.481-11.337-22.265-11.337c-5.833,0-11.417,1.816-16.147,5.253
			c-12.268,8.913-14.996,26.145-6.084,38.412c3.687,5.077,8.996,8.678,14.929,10.326c-4.428,7.694-6.975,16.601-6.975,26.098
			c0,28.949,23.552,52.5,52.5,52.5s52.5-23.551,52.5-52.5c0-9.496-2.547-18.404-6.975-26.098c5.934-1.648,11.242-5.25,14.929-10.325
			C477.866,67.604,475.138,50.371,462.87,41.458z M360.18,71.055c-4.05-5.576-2.809-13.409,2.766-17.46
			c2.151-1.562,4.686-2.389,7.331-2.389c3.998,0,7.785,1.927,10.13,5.154c4.051,5.576,2.81,13.409-2.766,17.46
			c-2.151,1.563-4.687,2.389-7.331,2.389C366.252,76.208,362.56,74.329,360.18,71.055z M408.5,153.793
			c-20.678,0-37.5-16.822-37.5-37.5c0-20.678,16.822-37.5,37.5-37.5c20.678,0,37.5,16.822,37.5,37.5
			C446,136.971,429.178,153.793,408.5,153.793z M456.82,71.055c-2.346,3.228-6.132,5.155-10.13,5.155
			c-2.645,0-5.18-0.826-7.331-2.389c-5.576-4.052-6.817-11.885-2.766-17.46c2.345-3.228,6.132-5.154,10.13-5.154
			c2.646,0,5.18,0.826,7.331,2.388C459.629,57.646,460.87,65.479,456.82,71.055z"/>
	</g>
</g>
<g>
	<g>
		<path d="M506.872,404.177L446,383.887v-45.094h22.5c4.143,0,7.5-3.358,7.5-7.5v-5.335c0-15.472-5.307-30.417-15-42.406v-72.259
			c0-15.164-12.337-27.5-27.5-27.5h-50c-15.163,0-27.5,12.336-27.5,27.5v26.89c-16.961-1.833-33.43-9.22-46.404-22.193
			c-2.93-2.929-7.678-2.929-10.607,0c-2.929,2.929-2.929,7.678,0,10.606c15.9,15.899,36.196,24.78,57.012,26.661v30.295
			c-9.693,11.989-15,26.935-15,42.406v5.335c0,4.142,3.357,7.5,7.5,7.5H371v114.094l-24.872,8.291
			c-3.93,1.31-6.053,5.558-4.743,9.487c1.048,3.143,3.974,5.13,7.114,5.13c0.786,0,1.586-0.125,2.373-0.387l30-10
			c3.062-1.021,5.128-3.887,5.128-7.115v-119.5h45v50.5c0,3.228,2.065,6.094,5.128,7.115L497,416.698v24.594
			c0,4.142,3.357,7.5,7.5,7.5s7.5-3.358,7.5-7.5v-30C512,408.065,509.935,405.198,506.872,404.177z M371,253.385
			c21.439-1.521,42.448-10.433,58.804-26.789c2.929-2.929,2.929-7.678,0-10.606c-2.93-2.929-7.678-2.929-10.607,0
			c-13.431,13.431-30.606,20.877-48.196,22.368v-27.065c-0.001-6.893,5.606-12.5,12.499-12.5h50c6.893,0,12.5,5.607,12.5,12.5v67.5
			h-75V253.385z M356.044,323.793c0.451-10.913,4.302-21.385,10.993-30h82.925c6.691,8.615,10.542,19.088,10.992,30H356.044z"/>
	</g>
</g>
<g>
</g>
<g>
</g>
<g>
</g>
<g>
</g>
<g>
</g>
<g>
</g>
<g>
</g>
<g>
</g>
<g>
</g>
<g>
</g>
<g>
</g>
<g>
</g>
<g>
</g>
<g>
</g>
<g>
</g>
</svg>
