<svg height="470pt" viewBox="0 0 470 470" width="470pt" xmlns="http://www.w3.org/2000/svg"><path d="m461.667969 197h-95.101563c-13.1875-45.0625-48.476562-80.269531-93.566406-93.355469v-95.167969c0-4.417968-3.53125-8.476562-7.949219-8.476562h-63.019531c-4.160156.109375-7.585938 3.316406-7.960938 7.464844l-4.214843 43.636718c-18.566407 4.613282-36.300781 12.085938-52.570313 22.148438l-33.484375-27.738281c-3.179687-2.628907-7.839843-2.410157-10.757812.511719l-46.941407 46.859374c-2.929687 2.917969-3.148437 7.589844-.507812 10.769532l27.785156 33.515625c-9.964844 16.277343-17.433594 33.953125-22.167968 52.441406l-43.8125 4.222656c-4.132813.378907-7.3242192 3.808594-7.398438 7.960938v66.414062c.078125 4.152344 3.265625 7.582031 7.398438 7.960938l43.703124 4.21875c4.636719 18.539062 12.125 36.242187 22.199219 52.484375l-27.730469 33.472656c-2.636718 3.183594-2.414062 7.851562.515626 10.769531l46.953124 46.847657c2.917969 2.917968 7.582032 3.136718 10.757813.5l33.539063-27.804688c16.296874 9.96875 34 17.433594 52.515624 22.132812l4.21875 43.75c.378907 4.144532 3.800782 7.351563 7.960938 7.460938h66.507812c4.164063-.109375 7.585938-3.316406 7.964844-7.464844l4.214844-43.632812c18.566406-4.613282 36.300781-12.085938 52.570312-22.148438l33.484376 27.734375c3.179687 2.628907 7.839843 2.410157 10.757812-.511719l46.945312-46.859374c2.929688-2.917969 3.148438-7.589844.507813-10.769532l-27.785156-33.515625c9.964843-16.277343 17.4375-33.957031 22.167969-52.449219l43.25-4.214843c4.128906-.386719 7.308593-3.816407 7.382812-7.960938v-63.207031c-.15625-4.480469-3.847656-8.023438-8.332031-8zm-105.707031 38c0 66.566406-54.242188 120.71875-120.914063 120.71875-66.667969 0-120.910156-54.152344-120.910156-120.71875s54.242187-120.71875 120.910156-120.71875c66.671875 0 120.914063 54.152344 120.914063 120.71875zm98.039062 25.949219-41.699219 4.066406c-3.460937.332031-6.324219 2.839844-7.113281 6.226563-4.625 20.605468-12.925781 40.207031-24.507812 57.863281-1.917969 2.933593-1.707032 6.773437.523437 9.472656l26.820313 32.363281-36.636719 36.558594-32.375-26.847656c-2.714844-2.25-6.582031-2.457032-9.523438-.511719-17.59375 11.65625-37.21875 19.90625-57.855469 24.328125-3.4375.835938-5.960937 3.765625-6.285156 7.285156l-4.070312 42.246094h-51.976563l-4.070312-42.246094c-.332031-3.5-2.871094-6.390625-6.300781-7.171875-19.839844-4.226562-39.328126-12.488281-57.929688-24.441406-2.925781-1.894531-6.742188-1.671875-9.429688.542969l-32.375 26.824218-36.628906-36.5625 26.832032-32.363281c2.257812-2.71875 2.460937-6.597656.5-9.535156-11.675782-17.5625-19.957032-37.160156-24.417969-57.773437-.8125-3.414063-3.710938-5.933594-7.210938-6.257813l-42.269531-4.074219v-51.882812l42.269531-4.074219c3.464844-.328125 6.332031-2.835937 7.121094-6.226563 4.625-20.605468 12.925781-40.207031 24.507813-57.863281 1.917968-2.933593 1.707031-6.773437-.523438-9.472656l-26.824219-32.363281 36.636719-36.554688 32.375 26.84375c2.714844 2.25 6.582031 2.457032 9.519531.511719 17.597657-11.65625 37.222657-19.90625 57.859375-24.328125 3.4375-.835938 5.960938-3.765625 6.28125-7.285156l4.078125-42.246094h47.699219v84.054688c-7.265625-1.1875-14.617188-1.78125-21.976562-1.773438-75.492188 0-136.902344 61.332031-136.902344 136.71875s61.425781 136.71875 136.917968 136.71875c75.496094 0 136.917969-61.332031 136.917969-136.71875 0-7.371094-.59375-14.726562-1.777343-22h83.820312zm0 0"/><path d="m221 184.648438v58.746093c0 4.417969 4.035156 7.605469 8.453125 7.605469h44.761719c4.417968 0 8-3.582031 8-8s-3.582032-8-8-8h-37.214844v-50.351562c0-4.417969-3.582031-8-8-8s-8 3.582031-8 8zm0 0"/></svg>